%TF.GenerationSoftware,KiCad,Pcbnew,7.0.10-7.0.10~ubuntu22.04.1*%
%TF.CreationDate,2024-04-18T16:44:08+05:30*%
%TF.ProjectId,EspXiao-FC,45737058-6961-46f2-9d46-432e6b696361,rev?*%
%TF.SameCoordinates,Original*%
%TF.FileFunction,Copper,L1,Top*%
%TF.FilePolarity,Positive*%
%FSLAX46Y46*%
G04 Gerber Fmt 4.6, Leading zero omitted, Abs format (unit mm)*
G04 Created by KiCad (PCBNEW 7.0.10-7.0.10~ubuntu22.04.1) date 2024-04-18 16:44:08*
%MOMM*%
%LPD*%
G01*
G04 APERTURE LIST*
%TA.AperFunction,ComponentPad*%
%ADD10R,1.700000X1.700000*%
%TD*%
%TA.AperFunction,ComponentPad*%
%ADD11O,1.700000X1.700000*%
%TD*%
%TA.AperFunction,ComponentPad*%
%ADD12R,1.995000X1.995000*%
%TD*%
%TA.AperFunction,ComponentPad*%
%ADD13C,1.995000*%
%TD*%
%TA.AperFunction,ComponentPad*%
%ADD14C,1.524000*%
%TD*%
%TA.AperFunction,Conductor*%
%ADD15C,0.600000*%
%TD*%
%TA.AperFunction,Conductor*%
%ADD16C,0.800000*%
%TD*%
G04 APERTURE END LIST*
D10*
%TO.P,J3,1,Pin_1*%
%TO.N,VCC*%
X131750000Y-72610000D03*
D11*
%TO.P,J3,2,Pin_2*%
%TO.N,MotorB*%
X131750000Y-75150000D03*
%TD*%
D10*
%TO.P,J2,1,Pin_1*%
%TO.N,VCC*%
X159750000Y-97560000D03*
D11*
%TO.P,J2,2,Pin_2*%
%TO.N,MotorA*%
X159750000Y-100100000D03*
%TD*%
D12*
%TO.P,Q2,1*%
%TO.N,MOTOR_B_PWM*%
X153000000Y-94200000D03*
D13*
%TO.P,Q2,2*%
%TO.N,MotorB*%
X150460000Y-94200000D03*
%TO.P,Q2,3*%
%TO.N,GNDREF*%
X147920000Y-94200000D03*
%TD*%
D10*
%TO.P,J6,1,Pin_1*%
%TO.N,VCC*%
X159700000Y-72610000D03*
D11*
%TO.P,J6,2,Pin_2*%
%TO.N,GNDREF*%
X159700000Y-75150000D03*
%TD*%
D12*
%TO.P,Q3,1*%
%TO.N,MOTOR_C_PWM*%
X131450000Y-83200000D03*
D13*
%TO.P,Q3,2*%
%TO.N,MotorC*%
X131450000Y-85740000D03*
%TO.P,Q3,3*%
%TO.N,GNDREF*%
X131450000Y-88280000D03*
%TD*%
D10*
%TO.P,J4,1,Pin_1*%
%TO.N,VCC*%
X131750000Y-97660000D03*
D11*
%TO.P,J4,2,Pin_2*%
%TO.N,MotorC*%
X131750000Y-100200000D03*
%TD*%
D14*
%TO.P,U1,1,PA02_A0_D0*%
%TO.N,MOTOR_A_PWM*%
X137484000Y-72969250D03*
%TO.P,U1,2,PA4_A1_D1*%
%TO.N,unconnected-(U1-PA4_A1_D1-Pad2)*%
X137484000Y-75469250D03*
%TO.P,U1,3,PA10_A2_D2*%
%TO.N,MOTOR_C_PWM*%
X137484000Y-78069250D03*
%TO.P,U1,4,PA11_A3_D3*%
%TO.N,unconnected-(U1-PA11_A3_D3-Pad4)*%
X137484000Y-80569250D03*
%TO.P,U1,5,PA8_A4_D4_SDA*%
%TO.N,SDA*%
X137484000Y-83069250D03*
%TO.P,U1,6,PA9_A5_D5_SCL*%
%TO.N,SCL*%
X137484000Y-85669250D03*
%TO.P,U1,7,PB08_A6_TX*%
%TO.N,unconnected-(U1-PB08_A6_TX-Pad7)*%
X137484000Y-88169250D03*
%TO.P,U1,8,PB09_D7_RX*%
%TO.N,MOTOR_B_PWM*%
X153684000Y-88149250D03*
%TO.P,U1,9,PA7_A8_D8_SCK*%
%TO.N,MOTOR_D_PWM*%
X153684000Y-85649250D03*
%TO.P,U1,10,PA5_A9_D9_MISO*%
%TO.N,unconnected-(U1-PA5_A9_D9_MISO-Pad10)*%
X153684000Y-83049250D03*
%TO.P,U1,11,PA6_A10_D10_MOSI*%
%TO.N,unconnected-(U1-PA6_A10_D10_MOSI-Pad11)*%
X153684000Y-80549250D03*
%TO.P,U1,12,3V3*%
%TO.N,unconnected-(U1-3V3-Pad12)*%
X153684000Y-78049250D03*
%TO.P,U1,13,GND*%
%TO.N,GNDREF*%
X153684000Y-75449250D03*
%TO.P,U1,14,5V*%
%TO.N,VCC*%
X153684000Y-72949250D03*
%TD*%
D12*
%TO.P,Q4,1*%
%TO.N,MOTOR_D_PWM*%
X158700000Y-86520000D03*
D13*
%TO.P,Q4,2*%
%TO.N,MotorD*%
X158700000Y-89060000D03*
%TO.P,Q4,3*%
%TO.N,GNDREF*%
X158700000Y-91600000D03*
%TD*%
D10*
%TO.P,J5,1,Pin_1*%
%TO.N,VCC*%
X159700000Y-79125000D03*
D11*
%TO.P,J5,2,Pin_2*%
%TO.N,MotorD*%
X159700000Y-81665000D03*
%TD*%
D12*
%TO.P,Q1,1*%
%TO.N,MOTOR_A_PWM*%
X141652500Y-94230000D03*
D13*
%TO.P,Q1,2*%
%TO.N,MotorA*%
X139112500Y-94230000D03*
%TO.P,Q1,3*%
%TO.N,GNDREF*%
X136572500Y-94230000D03*
%TD*%
D10*
%TO.P,J1,1,Pin_1*%
%TO.N,VCC*%
X137090000Y-100150000D03*
D11*
%TO.P,J1,2,Pin_2*%
%TO.N,GNDREF*%
X139630000Y-100150000D03*
%TO.P,J1,3,Pin_3*%
%TO.N,SCL*%
X142170000Y-100150000D03*
%TO.P,J1,4,Pin_4*%
%TO.N,SDA*%
X144710000Y-100150000D03*
%TO.P,J1,5,Pin_5*%
%TO.N,unconnected-(J1-Pin_5-Pad5)*%
X147250000Y-100150000D03*
%TO.P,J1,6,Pin_6*%
%TO.N,unconnected-(J1-Pin_6-Pad6)*%
X149790000Y-100150000D03*
%TO.P,J1,7,Pin_7*%
%TO.N,unconnected-(J1-Pin_7-Pad7)*%
X152330000Y-100150000D03*
%TO.P,J1,8,Pin_8*%
%TO.N,unconnected-(J1-Pin_8-Pad8)*%
X154870000Y-100150000D03*
%TD*%
D15*
%TO.N,SCL*%
X143800000Y-87000000D02*
X142449250Y-85649250D01*
X142170000Y-100150000D02*
X142170000Y-97328630D01*
X142170000Y-97328630D02*
X143800000Y-95698630D01*
X142449250Y-85649250D02*
X137519000Y-85649250D01*
X143800000Y-95698630D02*
X143800000Y-87000000D01*
%TO.N,SDA*%
X144710000Y-100150000D02*
X144710000Y-96140000D01*
X145700000Y-95150000D02*
X145700000Y-86750000D01*
X144710000Y-96140000D02*
X145700000Y-95150000D01*
X142059250Y-83109250D02*
X137519000Y-83109250D01*
X145700000Y-86750000D02*
X142059250Y-83109250D01*
%TO.N,MOTOR_C_PWM*%
X131450000Y-79200000D02*
X131450000Y-83200000D01*
X137519000Y-78029250D02*
X132620750Y-78029250D01*
X132620750Y-78029250D02*
X131450000Y-79200000D01*
%TO.N,MOTOR_D_PWM*%
X156820000Y-86520000D02*
X155949250Y-85649250D01*
X155949250Y-85649250D02*
X153684000Y-85649250D01*
X158700000Y-86520000D02*
X156820000Y-86520000D01*
D16*
%TO.N,VCC*%
X159360750Y-72949250D02*
X159700000Y-72610000D01*
X153684000Y-72949250D02*
X156000000Y-72949250D01*
X157600000Y-72949250D02*
X159360750Y-72949250D01*
X156000000Y-72949250D02*
X156850000Y-72949250D01*
X156850000Y-73799250D02*
X156000000Y-72949250D01*
X145949250Y-72949250D02*
X144150000Y-71150000D01*
X156850000Y-73800000D02*
X156850000Y-73699250D01*
X156850000Y-72949250D02*
X157600000Y-72949250D01*
X135040000Y-72610000D02*
X131750000Y-72610000D01*
X144150000Y-71150000D02*
X136500000Y-71150000D01*
D15*
X137090000Y-98490000D02*
X136260000Y-97660000D01*
D16*
X156850000Y-78550000D02*
X157425000Y-79125000D01*
D15*
X136260000Y-97660000D02*
X131750000Y-97660000D01*
D16*
X156850000Y-72949250D02*
X156850000Y-73800000D01*
X153684000Y-72949250D02*
X145949250Y-72949250D01*
X156850000Y-73800000D02*
X156850000Y-78550000D01*
X157425000Y-79125000D02*
X159700000Y-79125000D01*
X136500000Y-71150000D02*
X135040000Y-72610000D01*
X156850000Y-73699250D02*
X157600000Y-72949250D01*
X156850000Y-73800000D02*
X156850000Y-73799250D01*
D15*
X137090000Y-100150000D02*
X137090000Y-98490000D01*
%TO.N,MotorD*%
X160850000Y-84950000D02*
X159700000Y-83800000D01*
X160140000Y-89060000D02*
X160850000Y-88350000D01*
X158700000Y-89060000D02*
X160140000Y-89060000D01*
X159700000Y-83800000D02*
X159700000Y-81665000D01*
X160850000Y-88350000D02*
X160850000Y-84950000D01*
%TD*%
%TA.AperFunction,Conductor*%
%TO.N,GNDREF*%
G36*
X136121052Y-70120185D02*
G01*
X136166807Y-70172989D01*
X136176751Y-70242147D01*
X136147726Y-70305703D01*
X136116014Y-70331886D01*
X136079986Y-70352686D01*
X136072995Y-70356723D01*
X136067295Y-70359817D01*
X136006850Y-70390617D01*
X135995951Y-70399442D01*
X135979931Y-70410452D01*
X135967787Y-70417464D01*
X135967783Y-70417467D01*
X135917395Y-70462836D01*
X135912466Y-70467046D01*
X135896621Y-70479878D01*
X135882203Y-70494296D01*
X135877497Y-70498761D01*
X135827113Y-70544127D01*
X135827109Y-70544131D01*
X135818874Y-70555467D01*
X135806237Y-70570261D01*
X134974046Y-71402455D01*
X134703320Y-71673181D01*
X134641997Y-71706666D01*
X134615639Y-71709500D01*
X133201440Y-71709500D01*
X133134401Y-71689815D01*
X133088646Y-71637011D01*
X133085258Y-71628833D01*
X133043797Y-71517671D01*
X133043793Y-71517664D01*
X132957547Y-71402455D01*
X132957544Y-71402452D01*
X132842335Y-71316206D01*
X132842328Y-71316202D01*
X132707482Y-71265908D01*
X132707483Y-71265908D01*
X132647883Y-71259501D01*
X132647881Y-71259500D01*
X132647873Y-71259500D01*
X132647864Y-71259500D01*
X130852129Y-71259500D01*
X130852123Y-71259501D01*
X130792516Y-71265908D01*
X130657671Y-71316202D01*
X130657664Y-71316206D01*
X130542455Y-71402452D01*
X130542452Y-71402455D01*
X130456206Y-71517664D01*
X130456202Y-71517671D01*
X130405908Y-71652517D01*
X130400677Y-71701179D01*
X130399501Y-71712123D01*
X130399500Y-71712135D01*
X130399501Y-73507861D01*
X130399501Y-73507876D01*
X130405908Y-73567483D01*
X130456202Y-73702328D01*
X130456206Y-73702335D01*
X130542452Y-73817544D01*
X130542455Y-73817547D01*
X130657664Y-73903793D01*
X130657671Y-73903797D01*
X130789081Y-73952810D01*
X130845015Y-73994681D01*
X130869432Y-74060145D01*
X130854580Y-74128418D01*
X130833430Y-74156673D01*
X130711503Y-74278600D01*
X130575965Y-74472169D01*
X130575964Y-74472171D01*
X130476098Y-74686335D01*
X130476094Y-74686344D01*
X130414938Y-74914586D01*
X130414936Y-74914596D01*
X130394341Y-75149999D01*
X130394341Y-75150000D01*
X130414936Y-75385403D01*
X130414938Y-75385413D01*
X130476094Y-75613655D01*
X130476096Y-75613659D01*
X130476097Y-75613663D01*
X130511373Y-75689312D01*
X130575965Y-75827830D01*
X130575967Y-75827834D01*
X130628390Y-75902701D01*
X130711505Y-76021401D01*
X130878599Y-76188495D01*
X130975384Y-76256265D01*
X131072165Y-76324032D01*
X131072167Y-76324033D01*
X131072170Y-76324035D01*
X131286337Y-76423903D01*
X131514592Y-76485063D01*
X131696634Y-76500990D01*
X131749999Y-76505659D01*
X131750000Y-76505659D01*
X131750001Y-76505659D01*
X131803354Y-76500991D01*
X131985408Y-76485063D01*
X132213663Y-76423903D01*
X132427830Y-76324035D01*
X132621401Y-76188495D01*
X132788495Y-76021401D01*
X132924035Y-75827830D01*
X133023903Y-75613663D01*
X133085063Y-75385408D01*
X133105659Y-75150000D01*
X133085063Y-74914592D01*
X133023903Y-74686337D01*
X132924035Y-74472171D01*
X132871756Y-74397509D01*
X132788496Y-74278600D01*
X132728163Y-74218267D01*
X132666567Y-74156671D01*
X132633084Y-74095351D01*
X132638068Y-74025659D01*
X132679939Y-73969725D01*
X132710915Y-73952810D01*
X132842331Y-73903796D01*
X132957546Y-73817546D01*
X133043796Y-73702331D01*
X133069195Y-73634234D01*
X133085258Y-73591167D01*
X133127129Y-73535233D01*
X133192593Y-73510816D01*
X133201440Y-73510500D01*
X134959373Y-73510500D01*
X134978772Y-73512027D01*
X134992612Y-73514219D01*
X135060337Y-73510670D01*
X135066826Y-73510500D01*
X135087191Y-73510500D01*
X135087192Y-73510500D01*
X135098393Y-73509322D01*
X135107448Y-73508371D01*
X135113906Y-73507862D01*
X135181646Y-73504313D01*
X135195187Y-73500683D01*
X135214313Y-73497138D01*
X135228256Y-73495674D01*
X135292786Y-73474706D01*
X135298951Y-73472880D01*
X135364488Y-73455320D01*
X135376976Y-73448956D01*
X135394950Y-73441510D01*
X135408284Y-73437179D01*
X135467051Y-73403248D01*
X135472693Y-73400185D01*
X135533149Y-73369383D01*
X135544031Y-73360569D01*
X135560083Y-73349537D01*
X135572216Y-73342533D01*
X135622654Y-73297117D01*
X135627540Y-73292945D01*
X135643380Y-73280119D01*
X135657801Y-73265696D01*
X135662472Y-73261264D01*
X135712888Y-73215871D01*
X135721130Y-73204525D01*
X135733760Y-73189737D01*
X136007534Y-72915964D01*
X136068854Y-72882481D01*
X136138546Y-72887465D01*
X136194479Y-72929337D01*
X136218740Y-72992839D01*
X136235929Y-73189313D01*
X136235930Y-73189320D01*
X136293104Y-73402695D01*
X136293105Y-73402697D01*
X136293106Y-73402700D01*
X136345108Y-73514219D01*
X136386466Y-73602912D01*
X136386468Y-73602916D01*
X136513170Y-73783865D01*
X136513175Y-73783871D01*
X136669378Y-73940074D01*
X136669384Y-73940079D01*
X136850333Y-74066781D01*
X136850335Y-74066782D01*
X136850338Y-74066784D01*
X136912010Y-74095542D01*
X136936299Y-74106868D01*
X136988738Y-74153040D01*
X137007890Y-74220234D01*
X136987674Y-74287115D01*
X136936299Y-74331632D01*
X136850340Y-74371715D01*
X136850338Y-74371716D01*
X136669377Y-74498425D01*
X136513175Y-74654627D01*
X136386466Y-74835588D01*
X136386465Y-74835590D01*
X136293107Y-75035798D01*
X136293104Y-75035804D01*
X136235930Y-75249179D01*
X136235929Y-75249187D01*
X136216677Y-75469247D01*
X136216677Y-75469252D01*
X136235929Y-75689312D01*
X136235930Y-75689320D01*
X136293104Y-75902695D01*
X136293105Y-75902697D01*
X136293106Y-75902700D01*
X136377020Y-76082655D01*
X136386466Y-76102912D01*
X136386468Y-76102916D01*
X136513170Y-76283865D01*
X136513175Y-76283871D01*
X136669378Y-76440074D01*
X136669384Y-76440079D01*
X136850333Y-76566781D01*
X136850335Y-76566782D01*
X136850338Y-76566784D01*
X136979594Y-76627057D01*
X137043524Y-76656868D01*
X137095963Y-76703040D01*
X137115115Y-76770234D01*
X137094899Y-76837115D01*
X137043524Y-76881632D01*
X136850340Y-76971715D01*
X136850338Y-76971716D01*
X136669381Y-77098422D01*
X136622377Y-77145426D01*
X136575371Y-77192432D01*
X136514051Y-77225916D01*
X136487692Y-77228750D01*
X132710945Y-77228750D01*
X132530556Y-77228750D01*
X132523084Y-77230455D01*
X132493228Y-77237268D01*
X132479531Y-77239595D01*
X132441493Y-77243882D01*
X132405371Y-77256521D01*
X132392019Y-77260368D01*
X132354685Y-77268891D01*
X132320190Y-77285501D01*
X132307355Y-77290818D01*
X132271230Y-77303460D01*
X132271226Y-77303462D01*
X132238817Y-77323825D01*
X132226653Y-77330547D01*
X132192167Y-77347155D01*
X132162232Y-77371027D01*
X132150895Y-77379070D01*
X132118491Y-77399431D01*
X132118489Y-77399432D01*
X130820186Y-78697735D01*
X130820183Y-78697739D01*
X130799816Y-78730152D01*
X130791772Y-78741488D01*
X130767910Y-78771410D01*
X130751300Y-78805900D01*
X130744577Y-78818064D01*
X130724212Y-78850476D01*
X130724208Y-78850483D01*
X130711565Y-78886613D01*
X130706247Y-78899452D01*
X130689639Y-78933939D01*
X130681118Y-78971269D01*
X130677271Y-78984622D01*
X130664632Y-79020743D01*
X130660345Y-79058781D01*
X130658018Y-79072478D01*
X130649500Y-79109807D01*
X130649500Y-81578000D01*
X130629815Y-81645039D01*
X130577011Y-81690794D01*
X130525501Y-81702000D01*
X130404630Y-81702000D01*
X130404623Y-81702001D01*
X130345016Y-81708408D01*
X130210171Y-81758702D01*
X130210164Y-81758706D01*
X130094955Y-81844952D01*
X130094952Y-81844955D01*
X130008706Y-81960164D01*
X130008702Y-81960171D01*
X129958408Y-82095017D01*
X129954791Y-82128664D01*
X129952001Y-82154623D01*
X129952000Y-82154635D01*
X129952000Y-84245370D01*
X129952001Y-84245376D01*
X129958408Y-84304983D01*
X130008702Y-84439828D01*
X130008706Y-84439835D01*
X130094952Y-84555044D01*
X130094955Y-84555047D01*
X130210169Y-84641297D01*
X130216423Y-84644712D01*
X130265828Y-84694117D01*
X130280679Y-84762391D01*
X130260804Y-84821364D01*
X130128032Y-85024587D01*
X130028309Y-85251934D01*
X129967366Y-85492595D01*
X129946866Y-85739994D01*
X129946866Y-85740005D01*
X129967366Y-85987404D01*
X130028309Y-86228065D01*
X130128033Y-86455414D01*
X130261570Y-86659806D01*
X130263816Y-86663244D01*
X130431955Y-86845892D01*
X130528686Y-86921180D01*
X130535737Y-86926668D01*
X130576550Y-86983378D01*
X130583337Y-87032205D01*
X130581725Y-87058171D01*
X131190682Y-87667128D01*
X131138689Y-87686847D01*
X131005785Y-87778585D01*
X130898696Y-87899463D01*
X130835782Y-88019336D01*
X130228369Y-87411923D01*
X130128474Y-87564826D01*
X130028784Y-87792095D01*
X129967862Y-88032671D01*
X129967860Y-88032683D01*
X129947368Y-88279994D01*
X129947368Y-88280005D01*
X129967860Y-88527316D01*
X129967862Y-88527328D01*
X130028784Y-88767904D01*
X130128474Y-88995173D01*
X130228369Y-89148074D01*
X130835781Y-88540663D01*
X130898696Y-88660537D01*
X131005785Y-88781415D01*
X131138689Y-88873153D01*
X131190681Y-88892871D01*
X130581725Y-89501827D01*
X130628140Y-89537954D01*
X130628143Y-89537956D01*
X130846393Y-89656066D01*
X130846407Y-89656072D01*
X131081123Y-89736651D01*
X131325915Y-89777500D01*
X131574085Y-89777500D01*
X131818876Y-89736651D01*
X132053592Y-89656072D01*
X132053606Y-89656066D01*
X132271858Y-89537955D01*
X132271864Y-89537950D01*
X132318273Y-89501828D01*
X132318274Y-89501826D01*
X131709318Y-88892870D01*
X131761311Y-88873153D01*
X131894215Y-88781415D01*
X132001304Y-88660537D01*
X132064217Y-88540664D01*
X132671628Y-89148075D01*
X132771524Y-88995175D01*
X132871215Y-88767904D01*
X132932137Y-88527328D01*
X132932139Y-88527316D01*
X132952632Y-88280005D01*
X132952632Y-88279994D01*
X132932139Y-88032683D01*
X132932137Y-88032671D01*
X132871215Y-87792095D01*
X132771526Y-87564829D01*
X132671628Y-87411923D01*
X132064217Y-88019334D01*
X132001304Y-87899463D01*
X131894215Y-87778585D01*
X131761311Y-87686847D01*
X131709317Y-87667128D01*
X132318273Y-87058171D01*
X132316661Y-87032208D01*
X132332154Y-86964077D01*
X132364259Y-86926671D01*
X132468045Y-86845892D01*
X132636184Y-86663244D01*
X132771967Y-86455413D01*
X132871690Y-86228067D01*
X132932633Y-85987408D01*
X132953134Y-85740000D01*
X132951435Y-85719500D01*
X132932633Y-85492595D01*
X132932633Y-85492592D01*
X132871690Y-85251933D01*
X132771967Y-85024587D01*
X132639194Y-84821364D01*
X132619008Y-84754475D01*
X132638188Y-84687289D01*
X132683579Y-84644710D01*
X132689825Y-84641297D01*
X132689831Y-84641296D01*
X132805046Y-84555046D01*
X132891296Y-84439831D01*
X132941591Y-84304983D01*
X132948000Y-84245373D01*
X132947999Y-82154628D01*
X132941591Y-82095017D01*
X132935402Y-82078424D01*
X132891297Y-81960171D01*
X132891293Y-81960164D01*
X132805047Y-81844955D01*
X132805044Y-81844952D01*
X132689835Y-81758706D01*
X132689828Y-81758702D01*
X132554982Y-81708408D01*
X132554983Y-81708408D01*
X132495383Y-81702001D01*
X132495381Y-81702000D01*
X132495373Y-81702000D01*
X132495365Y-81702000D01*
X132374500Y-81702000D01*
X132307461Y-81682315D01*
X132261706Y-81629511D01*
X132250500Y-81578000D01*
X132250500Y-79582940D01*
X132270185Y-79515901D01*
X132286819Y-79495259D01*
X132916009Y-78866069D01*
X132977332Y-78832584D01*
X133003690Y-78829750D01*
X136410728Y-78829750D01*
X136477767Y-78849435D01*
X136509475Y-78879908D01*
X136509695Y-78879725D01*
X136511404Y-78881762D01*
X136512301Y-78882624D01*
X136513172Y-78883868D01*
X136513173Y-78883869D01*
X136513174Y-78883870D01*
X136669380Y-79040076D01*
X136669383Y-79040078D01*
X136669384Y-79040079D01*
X136850333Y-79166781D01*
X136850335Y-79166782D01*
X136850338Y-79166784D01*
X136936299Y-79206868D01*
X136988738Y-79253040D01*
X137007890Y-79320234D01*
X136987674Y-79387115D01*
X136936299Y-79431632D01*
X136850340Y-79471715D01*
X136850338Y-79471716D01*
X136669377Y-79598425D01*
X136513175Y-79754627D01*
X136386466Y-79935588D01*
X136386465Y-79935590D01*
X136293107Y-80135798D01*
X136293104Y-80135804D01*
X136235930Y-80349179D01*
X136235929Y-80349187D01*
X136216677Y-80569247D01*
X136216677Y-80569252D01*
X136235929Y-80789312D01*
X136235930Y-80789320D01*
X136293104Y-81002695D01*
X136293105Y-81002697D01*
X136293106Y-81002700D01*
X136377140Y-81182912D01*
X136386466Y-81202912D01*
X136386468Y-81202916D01*
X136513170Y-81383865D01*
X136513175Y-81383871D01*
X136669378Y-81540074D01*
X136669384Y-81540079D01*
X136850333Y-81666781D01*
X136850335Y-81666782D01*
X136850338Y-81666784D01*
X136936299Y-81706868D01*
X136988738Y-81753040D01*
X137007890Y-81820234D01*
X136987674Y-81887115D01*
X136936299Y-81931632D01*
X136850340Y-81971715D01*
X136850338Y-81971716D01*
X136669377Y-82098425D01*
X136513175Y-82254627D01*
X136386466Y-82435588D01*
X136386465Y-82435590D01*
X136293107Y-82635798D01*
X136293104Y-82635804D01*
X136235930Y-82849179D01*
X136235929Y-82849187D01*
X136216677Y-83069247D01*
X136216677Y-83069252D01*
X136235929Y-83289312D01*
X136235930Y-83289320D01*
X136293104Y-83502695D01*
X136293105Y-83502697D01*
X136293106Y-83502700D01*
X136294058Y-83504741D01*
X136386466Y-83702912D01*
X136386468Y-83702916D01*
X136513170Y-83883865D01*
X136513175Y-83883871D01*
X136669378Y-84040074D01*
X136669384Y-84040079D01*
X136850333Y-84166781D01*
X136850335Y-84166782D01*
X136850338Y-84166784D01*
X136908903Y-84194093D01*
X137043524Y-84256868D01*
X137095963Y-84303040D01*
X137115115Y-84370234D01*
X137094899Y-84437115D01*
X137043524Y-84481632D01*
X136850340Y-84571715D01*
X136850338Y-84571716D01*
X136669377Y-84698425D01*
X136513175Y-84854627D01*
X136386466Y-85035588D01*
X136386465Y-85035590D01*
X136293107Y-85235798D01*
X136293104Y-85235804D01*
X136235930Y-85449179D01*
X136235929Y-85449187D01*
X136216677Y-85669247D01*
X136216677Y-85669252D01*
X136235929Y-85889312D01*
X136235930Y-85889320D01*
X136293104Y-86102695D01*
X136293105Y-86102697D01*
X136293106Y-86102700D01*
X136360737Y-86247735D01*
X136386466Y-86302912D01*
X136386468Y-86302916D01*
X136513170Y-86483865D01*
X136513175Y-86483871D01*
X136669378Y-86640074D01*
X136669384Y-86640079D01*
X136850333Y-86766781D01*
X136850335Y-86766782D01*
X136850338Y-86766784D01*
X136936299Y-86806868D01*
X136988738Y-86853040D01*
X137007890Y-86920234D01*
X136987674Y-86987115D01*
X136936299Y-87031632D01*
X136850340Y-87071715D01*
X136850338Y-87071716D01*
X136669377Y-87198425D01*
X136513175Y-87354627D01*
X136386466Y-87535588D01*
X136386465Y-87535590D01*
X136293107Y-87735798D01*
X136293104Y-87735804D01*
X136235930Y-87949179D01*
X136235929Y-87949187D01*
X136216677Y-88169247D01*
X136216677Y-88169252D01*
X136235929Y-88389312D01*
X136235930Y-88389320D01*
X136293104Y-88602695D01*
X136293105Y-88602697D01*
X136293106Y-88602700D01*
X136356116Y-88737825D01*
X136386466Y-88802912D01*
X136386468Y-88802916D01*
X136513170Y-88983865D01*
X136513175Y-88983871D01*
X136669378Y-89140074D01*
X136669384Y-89140079D01*
X136850333Y-89266781D01*
X136850335Y-89266782D01*
X136850338Y-89266784D01*
X137050550Y-89360144D01*
X137263932Y-89417320D01*
X137421123Y-89431072D01*
X137483998Y-89436573D01*
X137484000Y-89436573D01*
X137484002Y-89436573D01*
X137539017Y-89431759D01*
X137704068Y-89417320D01*
X137917450Y-89360144D01*
X138117662Y-89266784D01*
X138298620Y-89140076D01*
X138454826Y-88983870D01*
X138581534Y-88802912D01*
X138674894Y-88602700D01*
X138732070Y-88389318D01*
X138751323Y-88169250D01*
X138750860Y-88163962D01*
X138739374Y-88032671D01*
X138732070Y-87949182D01*
X138674894Y-87735800D01*
X138581534Y-87535589D01*
X138454826Y-87354630D01*
X138298620Y-87198424D01*
X138298616Y-87198421D01*
X138298615Y-87198420D01*
X138117666Y-87071718D01*
X138117658Y-87071714D01*
X138069472Y-87049244D01*
X138031700Y-87031631D01*
X137979261Y-86985460D01*
X137960109Y-86918267D01*
X137980324Y-86851386D01*
X138031701Y-86806868D01*
X138117662Y-86766784D01*
X138298620Y-86640076D01*
X138452628Y-86486068D01*
X138513951Y-86452584D01*
X138540309Y-86449750D01*
X142066310Y-86449750D01*
X142133349Y-86469435D01*
X142153991Y-86486069D01*
X142963181Y-87295259D01*
X142996666Y-87356582D01*
X142999500Y-87382940D01*
X142999500Y-92650081D01*
X142979815Y-92717120D01*
X142927011Y-92762875D01*
X142857853Y-92772819D01*
X142832168Y-92766263D01*
X142757485Y-92738409D01*
X142757483Y-92738408D01*
X142697883Y-92732001D01*
X142697881Y-92732000D01*
X142697873Y-92732000D01*
X142697864Y-92732000D01*
X140607129Y-92732000D01*
X140607123Y-92732001D01*
X140547516Y-92738408D01*
X140412671Y-92788702D01*
X140412664Y-92788706D01*
X140297455Y-92874952D01*
X140297452Y-92874955D01*
X140211206Y-92990164D01*
X140206953Y-92997954D01*
X140204285Y-92996497D01*
X140171480Y-93040299D01*
X140106010Y-93064701D01*
X140037740Y-93049834D01*
X140021030Y-93038869D01*
X139940339Y-92976066D01*
X139934636Y-92971627D01*
X139756001Y-92874954D01*
X139716303Y-92853470D01*
X139716297Y-92853468D01*
X139481500Y-92772862D01*
X139301720Y-92742862D01*
X139236628Y-92732000D01*
X138988372Y-92732000D01*
X138927154Y-92742215D01*
X138743499Y-92772862D01*
X138508702Y-92853468D01*
X138508696Y-92853470D01*
X138290362Y-92971628D01*
X138094457Y-93124106D01*
X137926317Y-93306754D01*
X137926310Y-93306763D01*
X137925534Y-93307952D01*
X137925092Y-93308328D01*
X137923170Y-93310799D01*
X137922661Y-93310403D01*
X137872384Y-93353304D01*
X137808941Y-93363460D01*
X137794128Y-93361923D01*
X137186717Y-93969334D01*
X137123804Y-93849463D01*
X137016715Y-93728585D01*
X136883811Y-93636847D01*
X136831817Y-93617128D01*
X137440773Y-93008171D01*
X137394358Y-92972044D01*
X137394356Y-92972043D01*
X137176106Y-92853933D01*
X137176092Y-92853927D01*
X136941376Y-92773348D01*
X136696585Y-92732500D01*
X136448415Y-92732500D01*
X136203623Y-92773348D01*
X135968907Y-92853927D01*
X135968893Y-92853933D01*
X135750642Y-92972044D01*
X135704225Y-93008171D01*
X136313182Y-93617128D01*
X136261189Y-93636847D01*
X136128285Y-93728585D01*
X136021196Y-93849463D01*
X135958282Y-93969336D01*
X135350869Y-93361923D01*
X135250974Y-93514826D01*
X135151284Y-93742095D01*
X135090362Y-93982671D01*
X135090360Y-93982683D01*
X135069868Y-94229994D01*
X135069868Y-94230005D01*
X135090360Y-94477316D01*
X135090362Y-94477328D01*
X135151284Y-94717904D01*
X135250974Y-94945173D01*
X135350869Y-95098074D01*
X135958281Y-94490663D01*
X136021196Y-94610537D01*
X136128285Y-94731415D01*
X136261189Y-94823153D01*
X136313181Y-94842871D01*
X135704225Y-95451827D01*
X135750640Y-95487954D01*
X135750643Y-95487956D01*
X135968893Y-95606066D01*
X135968907Y-95606072D01*
X136203623Y-95686651D01*
X136448415Y-95727500D01*
X136696585Y-95727500D01*
X136941376Y-95686651D01*
X137176092Y-95606072D01*
X137176106Y-95606066D01*
X137394358Y-95487955D01*
X137394364Y-95487950D01*
X137440773Y-95451828D01*
X137440774Y-95451826D01*
X136831818Y-94842870D01*
X136883811Y-94823153D01*
X137016715Y-94731415D01*
X137123804Y-94610537D01*
X137186717Y-94490664D01*
X137794127Y-95098074D01*
X137808937Y-95096539D01*
X137877650Y-95109202D01*
X137922724Y-95149535D01*
X137923163Y-95149194D01*
X137925044Y-95151610D01*
X137925535Y-95152050D01*
X137926312Y-95153239D01*
X137926314Y-95153241D01*
X137926316Y-95153244D01*
X138094455Y-95335892D01*
X138290364Y-95488373D01*
X138453263Y-95576530D01*
X138507840Y-95606066D01*
X138508698Y-95606530D01*
X138743502Y-95687138D01*
X138988372Y-95728000D01*
X138988373Y-95728000D01*
X139236627Y-95728000D01*
X139236628Y-95728000D01*
X139481498Y-95687138D01*
X139716302Y-95606530D01*
X139934636Y-95488373D01*
X139935173Y-95487955D01*
X140021030Y-95421131D01*
X140086024Y-95395488D01*
X140154564Y-95409055D01*
X140204888Y-95457523D01*
X140207322Y-95462722D01*
X140211206Y-95469835D01*
X140297452Y-95585044D01*
X140297455Y-95585047D01*
X140412664Y-95671293D01*
X140412671Y-95671297D01*
X140547517Y-95721591D01*
X140547516Y-95721591D01*
X140554444Y-95722335D01*
X140607127Y-95728000D01*
X142339190Y-95727999D01*
X142406229Y-95747684D01*
X142451984Y-95800487D01*
X142461928Y-95869646D01*
X142432903Y-95933202D01*
X142426871Y-95939680D01*
X141667738Y-96698814D01*
X141540186Y-96826365D01*
X141540183Y-96826369D01*
X141519816Y-96858782D01*
X141511772Y-96870118D01*
X141487910Y-96900040D01*
X141471300Y-96934530D01*
X141464577Y-96946694D01*
X141444212Y-96979106D01*
X141444208Y-96979113D01*
X141431565Y-97015243D01*
X141426247Y-97028082D01*
X141409639Y-97062569D01*
X141401118Y-97099899D01*
X141397271Y-97113252D01*
X141384632Y-97149373D01*
X141380345Y-97187411D01*
X141378018Y-97201108D01*
X141369500Y-97238437D01*
X141369500Y-98997309D01*
X141349815Y-99064348D01*
X141316625Y-99098883D01*
X141298601Y-99111503D01*
X141298595Y-99111508D01*
X141131508Y-99278594D01*
X141001269Y-99464595D01*
X140946692Y-99508219D01*
X140877193Y-99515412D01*
X140814839Y-99483890D01*
X140798119Y-99464594D01*
X140668113Y-99278926D01*
X140668108Y-99278920D01*
X140501082Y-99111894D01*
X140307578Y-98976399D01*
X140093492Y-98876570D01*
X140093486Y-98876567D01*
X139880000Y-98819364D01*
X139880000Y-99714498D01*
X139772315Y-99665320D01*
X139665763Y-99650000D01*
X139594237Y-99650000D01*
X139487685Y-99665320D01*
X139380000Y-99714498D01*
X139380000Y-98819364D01*
X139379999Y-98819364D01*
X139166513Y-98876567D01*
X139166507Y-98876570D01*
X138952422Y-98976399D01*
X138952420Y-98976400D01*
X138758926Y-99111886D01*
X138636865Y-99233947D01*
X138575542Y-99267431D01*
X138505850Y-99262447D01*
X138449917Y-99220575D01*
X138433002Y-99189598D01*
X138383797Y-99057671D01*
X138383793Y-99057664D01*
X138297547Y-98942455D01*
X138297544Y-98942452D01*
X138182335Y-98856206D01*
X138182328Y-98856202D01*
X138047483Y-98805908D01*
X138001243Y-98800937D01*
X137936693Y-98774199D01*
X137896845Y-98716806D01*
X137890500Y-98677648D01*
X137890500Y-98399807D01*
X137890500Y-98399806D01*
X137881980Y-98362479D01*
X137879654Y-98348790D01*
X137875368Y-98310745D01*
X137862725Y-98274612D01*
X137858876Y-98261249D01*
X137850361Y-98223941D01*
X137833753Y-98189455D01*
X137828431Y-98176606D01*
X137824546Y-98165506D01*
X137815789Y-98140478D01*
X137795424Y-98108067D01*
X137788696Y-98095894D01*
X137772091Y-98061412D01*
X137772090Y-98061411D01*
X137748225Y-98031486D01*
X137740186Y-98020157D01*
X137719816Y-97987738D01*
X137592262Y-97860184D01*
X136794252Y-97062174D01*
X136762262Y-97030184D01*
X136758917Y-97028082D01*
X136729849Y-97009817D01*
X136718510Y-97001771D01*
X136688589Y-96977910D01*
X136654093Y-96961296D01*
X136641927Y-96954572D01*
X136609524Y-96934212D01*
X136609525Y-96934212D01*
X136602652Y-96931807D01*
X136573393Y-96921568D01*
X136560554Y-96916250D01*
X136526061Y-96899639D01*
X136488735Y-96891119D01*
X136475380Y-96887271D01*
X136439260Y-96874633D01*
X136439256Y-96874632D01*
X136439255Y-96874632D01*
X136421139Y-96872590D01*
X136401217Y-96870345D01*
X136387518Y-96868017D01*
X136350200Y-96859501D01*
X136350196Y-96859500D01*
X136350194Y-96859500D01*
X136350191Y-96859500D01*
X133222351Y-96859500D01*
X133155312Y-96839815D01*
X133109557Y-96787011D01*
X133099061Y-96748752D01*
X133094091Y-96702516D01*
X133043797Y-96567671D01*
X133043793Y-96567664D01*
X132957547Y-96452455D01*
X132957544Y-96452452D01*
X132842335Y-96366206D01*
X132842328Y-96366202D01*
X132707482Y-96315908D01*
X132707483Y-96315908D01*
X132647883Y-96309501D01*
X132647881Y-96309500D01*
X132647873Y-96309500D01*
X132647864Y-96309500D01*
X130852129Y-96309500D01*
X130852123Y-96309501D01*
X130792516Y-96315908D01*
X130657671Y-96366202D01*
X130657664Y-96366206D01*
X130542455Y-96452452D01*
X130542452Y-96452455D01*
X130456206Y-96567664D01*
X130456202Y-96567671D01*
X130405908Y-96702517D01*
X130399501Y-96762116D01*
X130399500Y-96762135D01*
X130399500Y-98557870D01*
X130399501Y-98557876D01*
X130405908Y-98617483D01*
X130456202Y-98752328D01*
X130456206Y-98752335D01*
X130542452Y-98867544D01*
X130542455Y-98867547D01*
X130657664Y-98953793D01*
X130657671Y-98953797D01*
X130789081Y-99002810D01*
X130845015Y-99044681D01*
X130869432Y-99110145D01*
X130854580Y-99178418D01*
X130833430Y-99206673D01*
X130711503Y-99328600D01*
X130575965Y-99522169D01*
X130575964Y-99522171D01*
X130476098Y-99736335D01*
X130476094Y-99736344D01*
X130414938Y-99964586D01*
X130414936Y-99964596D01*
X130394341Y-100199999D01*
X130394341Y-100200000D01*
X130414936Y-100435403D01*
X130414938Y-100435413D01*
X130476094Y-100663655D01*
X130476096Y-100663659D01*
X130476097Y-100663663D01*
X130556182Y-100835405D01*
X130575965Y-100877830D01*
X130575967Y-100877834D01*
X130641480Y-100971395D01*
X130711505Y-101071401D01*
X130878599Y-101238495D01*
X130975384Y-101306265D01*
X131072165Y-101374032D01*
X131072167Y-101374033D01*
X131072170Y-101374035D01*
X131286337Y-101473903D01*
X131286343Y-101473904D01*
X131286344Y-101473905D01*
X131327980Y-101485061D01*
X131514592Y-101535063D01*
X131702918Y-101551539D01*
X131749999Y-101555659D01*
X131750000Y-101555659D01*
X131750001Y-101555659D01*
X131789234Y-101552226D01*
X131985408Y-101535063D01*
X132213663Y-101473903D01*
X132427830Y-101374035D01*
X132621401Y-101238495D01*
X132788495Y-101071401D01*
X132924035Y-100877830D01*
X133023903Y-100663663D01*
X133085063Y-100435408D01*
X133105659Y-100200000D01*
X133085063Y-99964592D01*
X133023903Y-99736337D01*
X132924035Y-99522171D01*
X132919302Y-99515412D01*
X132788496Y-99328600D01*
X132738490Y-99278594D01*
X132666567Y-99206671D01*
X132633084Y-99145351D01*
X132638068Y-99075659D01*
X132679939Y-99019725D01*
X132710915Y-99002810D01*
X132842331Y-98953796D01*
X132957546Y-98867546D01*
X133043796Y-98752331D01*
X133094091Y-98617483D01*
X133099062Y-98571242D01*
X133125799Y-98506694D01*
X133183191Y-98466846D01*
X133222351Y-98460500D01*
X135877060Y-98460500D01*
X135944099Y-98480185D01*
X135964741Y-98496819D01*
X136099006Y-98631084D01*
X136132491Y-98692407D01*
X136127507Y-98762099D01*
X136085635Y-98818032D01*
X136054660Y-98834946D01*
X135997673Y-98856201D01*
X135997664Y-98856206D01*
X135882455Y-98942452D01*
X135882452Y-98942455D01*
X135796206Y-99057664D01*
X135796202Y-99057671D01*
X135745908Y-99192517D01*
X135739501Y-99252116D01*
X135739500Y-99252135D01*
X135739500Y-101047870D01*
X135739501Y-101047876D01*
X135745908Y-101107483D01*
X135796202Y-101242328D01*
X135796206Y-101242335D01*
X135882452Y-101357544D01*
X135882455Y-101357547D01*
X135997664Y-101443793D01*
X135997671Y-101443797D01*
X136132517Y-101494091D01*
X136132516Y-101494091D01*
X136139444Y-101494835D01*
X136192127Y-101500500D01*
X137987872Y-101500499D01*
X138047483Y-101494091D01*
X138182331Y-101443796D01*
X138297546Y-101357546D01*
X138383796Y-101242331D01*
X138383797Y-101242327D01*
X138383800Y-101242323D01*
X138433002Y-101110402D01*
X138474872Y-101054468D01*
X138540337Y-101030050D01*
X138608610Y-101044901D01*
X138636865Y-101066053D01*
X138758917Y-101188105D01*
X138952421Y-101323600D01*
X139166507Y-101423429D01*
X139166516Y-101423433D01*
X139380000Y-101480634D01*
X139380000Y-100585501D01*
X139487685Y-100634680D01*
X139594237Y-100650000D01*
X139665763Y-100650000D01*
X139772315Y-100634680D01*
X139880000Y-100585501D01*
X139880000Y-101480633D01*
X140093483Y-101423433D01*
X140093492Y-101423429D01*
X140307578Y-101323600D01*
X140501082Y-101188105D01*
X140668105Y-101021082D01*
X140798119Y-100835405D01*
X140852696Y-100791781D01*
X140922195Y-100784588D01*
X140984549Y-100816110D01*
X141001269Y-100835405D01*
X141131505Y-101021401D01*
X141298599Y-101188495D01*
X141395384Y-101256265D01*
X141492165Y-101324032D01*
X141492167Y-101324033D01*
X141492170Y-101324035D01*
X141706337Y-101423903D01*
X141934592Y-101485063D01*
X142111034Y-101500500D01*
X142169999Y-101505659D01*
X142170000Y-101505659D01*
X142170001Y-101505659D01*
X142228966Y-101500500D01*
X142405408Y-101485063D01*
X142633663Y-101423903D01*
X142847830Y-101324035D01*
X143041401Y-101188495D01*
X143208495Y-101021401D01*
X143338425Y-100835842D01*
X143393002Y-100792217D01*
X143462500Y-100785023D01*
X143524855Y-100816546D01*
X143541575Y-100835842D01*
X143671500Y-101021395D01*
X143671505Y-101021401D01*
X143838599Y-101188495D01*
X143935384Y-101256265D01*
X144032165Y-101324032D01*
X144032167Y-101324033D01*
X144032170Y-101324035D01*
X144246337Y-101423903D01*
X144474592Y-101485063D01*
X144651034Y-101500500D01*
X144709999Y-101505659D01*
X144710000Y-101505659D01*
X144710001Y-101505659D01*
X144768966Y-101500500D01*
X144945408Y-101485063D01*
X145173663Y-101423903D01*
X145387830Y-101324035D01*
X145581401Y-101188495D01*
X145748495Y-101021401D01*
X145878425Y-100835842D01*
X145933002Y-100792217D01*
X146002500Y-100785023D01*
X146064855Y-100816546D01*
X146081575Y-100835842D01*
X146211500Y-101021395D01*
X146211505Y-101021401D01*
X146378599Y-101188495D01*
X146475384Y-101256265D01*
X146572165Y-101324032D01*
X146572167Y-101324033D01*
X146572170Y-101324035D01*
X146786337Y-101423903D01*
X147014592Y-101485063D01*
X147191034Y-101500500D01*
X147249999Y-101505659D01*
X147250000Y-101505659D01*
X147250001Y-101505659D01*
X147308966Y-101500500D01*
X147485408Y-101485063D01*
X147713663Y-101423903D01*
X147927830Y-101324035D01*
X148121401Y-101188495D01*
X148288495Y-101021401D01*
X148418425Y-100835842D01*
X148473002Y-100792217D01*
X148542500Y-100785023D01*
X148604855Y-100816546D01*
X148621575Y-100835842D01*
X148751500Y-101021395D01*
X148751505Y-101021401D01*
X148918599Y-101188495D01*
X149015384Y-101256265D01*
X149112165Y-101324032D01*
X149112167Y-101324033D01*
X149112170Y-101324035D01*
X149326337Y-101423903D01*
X149554592Y-101485063D01*
X149731034Y-101500500D01*
X149789999Y-101505659D01*
X149790000Y-101505659D01*
X149790001Y-101505659D01*
X149848966Y-101500500D01*
X150025408Y-101485063D01*
X150253663Y-101423903D01*
X150467830Y-101324035D01*
X150661401Y-101188495D01*
X150828495Y-101021401D01*
X150958425Y-100835842D01*
X151013002Y-100792217D01*
X151082500Y-100785023D01*
X151144855Y-100816546D01*
X151161575Y-100835842D01*
X151291500Y-101021395D01*
X151291505Y-101021401D01*
X151458599Y-101188495D01*
X151555384Y-101256265D01*
X151652165Y-101324032D01*
X151652167Y-101324033D01*
X151652170Y-101324035D01*
X151866337Y-101423903D01*
X152094592Y-101485063D01*
X152271034Y-101500500D01*
X152329999Y-101505659D01*
X152330000Y-101505659D01*
X152330001Y-101505659D01*
X152388966Y-101500500D01*
X152565408Y-101485063D01*
X152793663Y-101423903D01*
X153007830Y-101324035D01*
X153201401Y-101188495D01*
X153368495Y-101021401D01*
X153498425Y-100835842D01*
X153553002Y-100792217D01*
X153622500Y-100785023D01*
X153684855Y-100816546D01*
X153701575Y-100835842D01*
X153831500Y-101021395D01*
X153831505Y-101021401D01*
X153998599Y-101188495D01*
X154095384Y-101256265D01*
X154192165Y-101324032D01*
X154192167Y-101324033D01*
X154192170Y-101324035D01*
X154406337Y-101423903D01*
X154634592Y-101485063D01*
X154811034Y-101500500D01*
X154869999Y-101505659D01*
X154870000Y-101505659D01*
X154870001Y-101505659D01*
X154928966Y-101500500D01*
X155105408Y-101485063D01*
X155333663Y-101423903D01*
X155547830Y-101324035D01*
X155741401Y-101188495D01*
X155908495Y-101021401D01*
X156044035Y-100827830D01*
X156143903Y-100613663D01*
X156205063Y-100385408D01*
X156225659Y-100150000D01*
X156221284Y-100100000D01*
X158394341Y-100100000D01*
X158414936Y-100335403D01*
X158414938Y-100335413D01*
X158476094Y-100563655D01*
X158476096Y-100563659D01*
X158476097Y-100563663D01*
X158575965Y-100777830D01*
X158575967Y-100777834D01*
X158684281Y-100932521D01*
X158711505Y-100971401D01*
X158878599Y-101138495D01*
X158950011Y-101188498D01*
X159072165Y-101274032D01*
X159072167Y-101274033D01*
X159072170Y-101274035D01*
X159286337Y-101373903D01*
X159286343Y-101373904D01*
X159286344Y-101373905D01*
X159341285Y-101388626D01*
X159514592Y-101435063D01*
X159702918Y-101451539D01*
X159749999Y-101455659D01*
X159750000Y-101455659D01*
X159750001Y-101455659D01*
X159789234Y-101452226D01*
X159985408Y-101435063D01*
X160213663Y-101373903D01*
X160427830Y-101274035D01*
X160621401Y-101138495D01*
X160788495Y-100971401D01*
X160924035Y-100777830D01*
X161023903Y-100563663D01*
X161085063Y-100335408D01*
X161105659Y-100100000D01*
X161085063Y-99864592D01*
X161023903Y-99636337D01*
X160924035Y-99422171D01*
X160858516Y-99328600D01*
X160788496Y-99228600D01*
X160738314Y-99178418D01*
X160666567Y-99106671D01*
X160633084Y-99045351D01*
X160638068Y-98975659D01*
X160679939Y-98919725D01*
X160710915Y-98902810D01*
X160842331Y-98853796D01*
X160957546Y-98767546D01*
X161043796Y-98652331D01*
X161094091Y-98517483D01*
X161100500Y-98457873D01*
X161100499Y-96662128D01*
X161094091Y-96602517D01*
X161081094Y-96567671D01*
X161043797Y-96467671D01*
X161043793Y-96467664D01*
X160957547Y-96352455D01*
X160957544Y-96352452D01*
X160842335Y-96266206D01*
X160842328Y-96266202D01*
X160707482Y-96215908D01*
X160707483Y-96215908D01*
X160647883Y-96209501D01*
X160647881Y-96209500D01*
X160647873Y-96209500D01*
X160647864Y-96209500D01*
X158852129Y-96209500D01*
X158852123Y-96209501D01*
X158792516Y-96215908D01*
X158657671Y-96266202D01*
X158657664Y-96266206D01*
X158542455Y-96352452D01*
X158542452Y-96352455D01*
X158456206Y-96467664D01*
X158456202Y-96467671D01*
X158405908Y-96602517D01*
X158399501Y-96662116D01*
X158399501Y-96662123D01*
X158399500Y-96662135D01*
X158399500Y-98457870D01*
X158399501Y-98457876D01*
X158405908Y-98517483D01*
X158456202Y-98652328D01*
X158456206Y-98652335D01*
X158542452Y-98767544D01*
X158542455Y-98767547D01*
X158657664Y-98853793D01*
X158657671Y-98853797D01*
X158789081Y-98902810D01*
X158845015Y-98944681D01*
X158869432Y-99010145D01*
X158854580Y-99078418D01*
X158833430Y-99106673D01*
X158711503Y-99228600D01*
X158575965Y-99422169D01*
X158575964Y-99422171D01*
X158476098Y-99636335D01*
X158476094Y-99636344D01*
X158414938Y-99864586D01*
X158414936Y-99864596D01*
X158394341Y-100099999D01*
X158394341Y-100100000D01*
X156221284Y-100100000D01*
X156205063Y-99914592D01*
X156143903Y-99686337D01*
X156044035Y-99472171D01*
X156038731Y-99464595D01*
X155908494Y-99278597D01*
X155741402Y-99111506D01*
X155741395Y-99111501D01*
X155739458Y-99110145D01*
X155664518Y-99057671D01*
X155547834Y-98975967D01*
X155547830Y-98975965D01*
X155547174Y-98975659D01*
X155333663Y-98876097D01*
X155333659Y-98876096D01*
X155333655Y-98876094D01*
X155105413Y-98814938D01*
X155105403Y-98814936D01*
X154870001Y-98794341D01*
X154869999Y-98794341D01*
X154634596Y-98814936D01*
X154634586Y-98814938D01*
X154406344Y-98876094D01*
X154406335Y-98876098D01*
X154192171Y-98975964D01*
X154192169Y-98975965D01*
X153998597Y-99111505D01*
X153831505Y-99278597D01*
X153701575Y-99464158D01*
X153646998Y-99507783D01*
X153577500Y-99514977D01*
X153515145Y-99483454D01*
X153498425Y-99464158D01*
X153368494Y-99278597D01*
X153201402Y-99111506D01*
X153201395Y-99111501D01*
X153199458Y-99110145D01*
X153124518Y-99057671D01*
X153007834Y-98975967D01*
X153007830Y-98975965D01*
X153007174Y-98975659D01*
X152793663Y-98876097D01*
X152793659Y-98876096D01*
X152793655Y-98876094D01*
X152565413Y-98814938D01*
X152565403Y-98814936D01*
X152330001Y-98794341D01*
X152329999Y-98794341D01*
X152094596Y-98814936D01*
X152094586Y-98814938D01*
X151866344Y-98876094D01*
X151866335Y-98876098D01*
X151652171Y-98975964D01*
X151652169Y-98975965D01*
X151458597Y-99111505D01*
X151291505Y-99278597D01*
X151161575Y-99464158D01*
X151106998Y-99507783D01*
X151037500Y-99514977D01*
X150975145Y-99483454D01*
X150958425Y-99464158D01*
X150828494Y-99278597D01*
X150661402Y-99111506D01*
X150661395Y-99111501D01*
X150659458Y-99110145D01*
X150584518Y-99057671D01*
X150467834Y-98975967D01*
X150467830Y-98975965D01*
X150467174Y-98975659D01*
X150253663Y-98876097D01*
X150253659Y-98876096D01*
X150253655Y-98876094D01*
X150025413Y-98814938D01*
X150025403Y-98814936D01*
X149790001Y-98794341D01*
X149789999Y-98794341D01*
X149554596Y-98814936D01*
X149554586Y-98814938D01*
X149326344Y-98876094D01*
X149326335Y-98876098D01*
X149112171Y-98975964D01*
X149112169Y-98975965D01*
X148918597Y-99111505D01*
X148751505Y-99278597D01*
X148621575Y-99464158D01*
X148566998Y-99507783D01*
X148497500Y-99514977D01*
X148435145Y-99483454D01*
X148418425Y-99464158D01*
X148288494Y-99278597D01*
X148121402Y-99111506D01*
X148121395Y-99111501D01*
X148119458Y-99110145D01*
X148044518Y-99057671D01*
X147927834Y-98975967D01*
X147927830Y-98975965D01*
X147927174Y-98975659D01*
X147713663Y-98876097D01*
X147713659Y-98876096D01*
X147713655Y-98876094D01*
X147485413Y-98814938D01*
X147485403Y-98814936D01*
X147250001Y-98794341D01*
X147249999Y-98794341D01*
X147014596Y-98814936D01*
X147014586Y-98814938D01*
X146786344Y-98876094D01*
X146786335Y-98876098D01*
X146572171Y-98975964D01*
X146572169Y-98975965D01*
X146378597Y-99111505D01*
X146211505Y-99278597D01*
X146081575Y-99464158D01*
X146026998Y-99507783D01*
X145957500Y-99514977D01*
X145895145Y-99483454D01*
X145878425Y-99464158D01*
X145748494Y-99278597D01*
X145581404Y-99111508D01*
X145581402Y-99111506D01*
X145581401Y-99111505D01*
X145563374Y-99098882D01*
X145519751Y-99044306D01*
X145510500Y-98997309D01*
X145510500Y-96522940D01*
X145530185Y-96455901D01*
X145546819Y-96435259D01*
X146329815Y-95652263D01*
X146329816Y-95652262D01*
X146350182Y-95619847D01*
X146358222Y-95608515D01*
X146382091Y-95578587D01*
X146398704Y-95544088D01*
X146405413Y-95531948D01*
X146425789Y-95499522D01*
X146438430Y-95463395D01*
X146443752Y-95450545D01*
X146460359Y-95416061D01*
X146468877Y-95378737D01*
X146472722Y-95365393D01*
X146485368Y-95329255D01*
X146489655Y-95291201D01*
X146491982Y-95277511D01*
X146492268Y-95276261D01*
X146500500Y-95240195D01*
X146500500Y-95181721D01*
X146520185Y-95114682D01*
X146572989Y-95068927D01*
X146642147Y-95058983D01*
X146651387Y-95063202D01*
X146698369Y-95068075D01*
X147305781Y-94460663D01*
X147368696Y-94580537D01*
X147475785Y-94701415D01*
X147608689Y-94793153D01*
X147660681Y-94812871D01*
X147051725Y-95421827D01*
X147098140Y-95457954D01*
X147098143Y-95457956D01*
X147316393Y-95576066D01*
X147316407Y-95576072D01*
X147551123Y-95656651D01*
X147795915Y-95697500D01*
X148044085Y-95697500D01*
X148288876Y-95656651D01*
X148523592Y-95576072D01*
X148523606Y-95576066D01*
X148741858Y-95457955D01*
X148741864Y-95457950D01*
X148788273Y-95421828D01*
X148788274Y-95421826D01*
X148179318Y-94812870D01*
X148231311Y-94793153D01*
X148364215Y-94701415D01*
X148471304Y-94580537D01*
X148534217Y-94460664D01*
X149141627Y-95068074D01*
X149156437Y-95066539D01*
X149225150Y-95079202D01*
X149270224Y-95119535D01*
X149270663Y-95119194D01*
X149272544Y-95121610D01*
X149273035Y-95122050D01*
X149273812Y-95123239D01*
X149273814Y-95123241D01*
X149273816Y-95123244D01*
X149441955Y-95305892D01*
X149637864Y-95458373D01*
X149784687Y-95537830D01*
X149855340Y-95576066D01*
X149856198Y-95576530D01*
X150091002Y-95657138D01*
X150335872Y-95698000D01*
X150335873Y-95698000D01*
X150584127Y-95698000D01*
X150584128Y-95698000D01*
X150828998Y-95657138D01*
X151063802Y-95576530D01*
X151282136Y-95458373D01*
X151282673Y-95457955D01*
X151368530Y-95391131D01*
X151433524Y-95365488D01*
X151502064Y-95379055D01*
X151552388Y-95427523D01*
X151554822Y-95432722D01*
X151558706Y-95439835D01*
X151644952Y-95555044D01*
X151644955Y-95555047D01*
X151760164Y-95641293D01*
X151760171Y-95641297D01*
X151895017Y-95691591D01*
X151895016Y-95691591D01*
X151901944Y-95692335D01*
X151954627Y-95698000D01*
X154045372Y-95697999D01*
X154104983Y-95691591D01*
X154239831Y-95641296D01*
X154355046Y-95555046D01*
X154441296Y-95439831D01*
X154491591Y-95304983D01*
X154498000Y-95245373D01*
X154497999Y-93154628D01*
X154491591Y-93095017D01*
X154491251Y-93094106D01*
X154441297Y-92960171D01*
X154441293Y-92960164D01*
X154355047Y-92844955D01*
X154355044Y-92844952D01*
X154239835Y-92758706D01*
X154239828Y-92758702D01*
X154104982Y-92708408D01*
X154104983Y-92708408D01*
X154045383Y-92702001D01*
X154045381Y-92702000D01*
X154045373Y-92702000D01*
X154045364Y-92702000D01*
X151954629Y-92702000D01*
X151954623Y-92702001D01*
X151895016Y-92708408D01*
X151760171Y-92758702D01*
X151760164Y-92758706D01*
X151644955Y-92844952D01*
X151644952Y-92844955D01*
X151558706Y-92960164D01*
X151554453Y-92967954D01*
X151551785Y-92966497D01*
X151518980Y-93010299D01*
X151453510Y-93034701D01*
X151385240Y-93019834D01*
X151368530Y-93008869D01*
X151303703Y-92958413D01*
X151282136Y-92941627D01*
X151158932Y-92874952D01*
X151063803Y-92823470D01*
X151063797Y-92823468D01*
X150829000Y-92742862D01*
X150665751Y-92715620D01*
X150584128Y-92702000D01*
X150335872Y-92702000D01*
X150274654Y-92712215D01*
X150090999Y-92742862D01*
X149856202Y-92823468D01*
X149856196Y-92823470D01*
X149637862Y-92941628D01*
X149441957Y-93094106D01*
X149441955Y-93094107D01*
X149441955Y-93094108D01*
X149415243Y-93123124D01*
X149273817Y-93276754D01*
X149273810Y-93276763D01*
X149273034Y-93277952D01*
X149272592Y-93278328D01*
X149270670Y-93280799D01*
X149270161Y-93280403D01*
X149219884Y-93323304D01*
X149156441Y-93333460D01*
X149141628Y-93331923D01*
X148534217Y-93939334D01*
X148471304Y-93819463D01*
X148364215Y-93698585D01*
X148231311Y-93606847D01*
X148179317Y-93587128D01*
X148788273Y-92978171D01*
X148741858Y-92942044D01*
X148741856Y-92942043D01*
X148523606Y-92823933D01*
X148523592Y-92823927D01*
X148288876Y-92743348D01*
X148044085Y-92702500D01*
X147795915Y-92702500D01*
X147551123Y-92743348D01*
X147316407Y-92823927D01*
X147316393Y-92823933D01*
X147098142Y-92942044D01*
X147051725Y-92978171D01*
X147660682Y-93587128D01*
X147608689Y-93606847D01*
X147475785Y-93698585D01*
X147368696Y-93819463D01*
X147305782Y-93939336D01*
X146698369Y-93331923D01*
X146639645Y-93338014D01*
X146639468Y-93336313D01*
X146605923Y-93340877D01*
X146542589Y-93311371D01*
X146505261Y-93252309D01*
X146500500Y-93218277D01*
X146500500Y-86659807D01*
X146500500Y-86659806D01*
X146491980Y-86622479D01*
X146489654Y-86608790D01*
X146485368Y-86570745D01*
X146472725Y-86534612D01*
X146468876Y-86521249D01*
X146460361Y-86483941D01*
X146446623Y-86455414D01*
X146443750Y-86449450D01*
X146438431Y-86436606D01*
X146434546Y-86425506D01*
X146425789Y-86400478D01*
X146405424Y-86368067D01*
X146398696Y-86355894D01*
X146382091Y-86321412D01*
X146382090Y-86321411D01*
X146358225Y-86291486D01*
X146350186Y-86280157D01*
X146329816Y-86247738D01*
X146202262Y-86120184D01*
X142593502Y-82511424D01*
X142561512Y-82479434D01*
X142561509Y-82479432D01*
X142529099Y-82459067D01*
X142517760Y-82451021D01*
X142487839Y-82427160D01*
X142453343Y-82410546D01*
X142441177Y-82403822D01*
X142408774Y-82383462D01*
X142408775Y-82383462D01*
X142401902Y-82381057D01*
X142372643Y-82370818D01*
X142359804Y-82365500D01*
X142325311Y-82348889D01*
X142287985Y-82340369D01*
X142274630Y-82336521D01*
X142238510Y-82323883D01*
X142238506Y-82323882D01*
X142238505Y-82323882D01*
X142220389Y-82321840D01*
X142200467Y-82319595D01*
X142186768Y-82317267D01*
X142149450Y-82308751D01*
X142149446Y-82308750D01*
X142149444Y-82308750D01*
X142149441Y-82308750D01*
X138557272Y-82308750D01*
X138490233Y-82289065D01*
X138458524Y-82258591D01*
X138458305Y-82258775D01*
X138456595Y-82256737D01*
X138455699Y-82255876D01*
X138454827Y-82254631D01*
X138434823Y-82234627D01*
X138298620Y-82098424D01*
X138298616Y-82098421D01*
X138298615Y-82098420D01*
X138117666Y-81971718D01*
X138117658Y-81971714D01*
X138031701Y-81931632D01*
X137979261Y-81885460D01*
X137960109Y-81818267D01*
X137980324Y-81751386D01*
X138031701Y-81706868D01*
X138117662Y-81666784D01*
X138298620Y-81540076D01*
X138454826Y-81383870D01*
X138581534Y-81202912D01*
X138674894Y-81002700D01*
X138732070Y-80789318D01*
X138751323Y-80569250D01*
X138749573Y-80549252D01*
X138732070Y-80349187D01*
X138732070Y-80349182D01*
X138674894Y-80135800D01*
X138581534Y-79935589D01*
X138493585Y-79809984D01*
X138454827Y-79754631D01*
X138404932Y-79704736D01*
X138298620Y-79598424D01*
X138298616Y-79598421D01*
X138298615Y-79598420D01*
X138117666Y-79471718D01*
X138117658Y-79471714D01*
X138031701Y-79431632D01*
X137979261Y-79385460D01*
X137960109Y-79318267D01*
X137980324Y-79251386D01*
X138031701Y-79206868D01*
X138117662Y-79166784D01*
X138298620Y-79040076D01*
X138454826Y-78883870D01*
X138581534Y-78702912D01*
X138674894Y-78502700D01*
X138732070Y-78289318D01*
X138751323Y-78069250D01*
X138749573Y-78049252D01*
X138738043Y-77917454D01*
X138732070Y-77849182D01*
X138674894Y-77635800D01*
X138581534Y-77435589D01*
X138458844Y-77260368D01*
X138454827Y-77254631D01*
X138392627Y-77192431D01*
X138298620Y-77098424D01*
X138298616Y-77098421D01*
X138298615Y-77098420D01*
X138117666Y-76971718D01*
X138117662Y-76971716D01*
X138074772Y-76951716D01*
X137924474Y-76881631D01*
X137872036Y-76835460D01*
X137852884Y-76768266D01*
X137873100Y-76701385D01*
X137924475Y-76656868D01*
X138117662Y-76566784D01*
X138298620Y-76440076D01*
X138454826Y-76283870D01*
X138581534Y-76102912D01*
X138674894Y-75902700D01*
X138732070Y-75689318D01*
X138751323Y-75469250D01*
X138732070Y-75249182D01*
X138674894Y-75035800D01*
X138581534Y-74835589D01*
X138477151Y-74686513D01*
X138454827Y-74654631D01*
X138450196Y-74650000D01*
X138298620Y-74498424D01*
X138298616Y-74498421D01*
X138298615Y-74498420D01*
X138117666Y-74371718D01*
X138117658Y-74371714D01*
X138031701Y-74331632D01*
X137979261Y-74285460D01*
X137960109Y-74218267D01*
X137980324Y-74151386D01*
X138031701Y-74106868D01*
X138117662Y-74066784D01*
X138298620Y-73940076D01*
X138454826Y-73783870D01*
X138581534Y-73602912D01*
X138674894Y-73402700D01*
X138732070Y-73189318D01*
X138751323Y-72969250D01*
X138732070Y-72749182D01*
X138674894Y-72535800D01*
X138581534Y-72335589D01*
X138518538Y-72245621D01*
X138496212Y-72179416D01*
X138513224Y-72111649D01*
X138564172Y-72063837D01*
X138620115Y-72050500D01*
X143725639Y-72050500D01*
X143792678Y-72070185D01*
X143813320Y-72086819D01*
X145255486Y-73528986D01*
X145268121Y-73543779D01*
X145276360Y-73555119D01*
X145276365Y-73555125D01*
X145326754Y-73600494D01*
X145331447Y-73604947D01*
X145345870Y-73619370D01*
X145361706Y-73632193D01*
X145366625Y-73636395D01*
X145391958Y-73659204D01*
X145417034Y-73681783D01*
X145429170Y-73688790D01*
X145445202Y-73699807D01*
X145456101Y-73708633D01*
X145516542Y-73739428D01*
X145522225Y-73742515D01*
X145580957Y-73776424D01*
X145580962Y-73776427D01*
X145580963Y-73776427D01*
X145580966Y-73776429D01*
X145594300Y-73780761D01*
X145612272Y-73788206D01*
X145624762Y-73794570D01*
X145624764Y-73794570D01*
X145624765Y-73794571D01*
X145647206Y-73800583D01*
X145690278Y-73812124D01*
X145696477Y-73813960D01*
X145760994Y-73834924D01*
X145774938Y-73836389D01*
X145794064Y-73839935D01*
X145803691Y-73842514D01*
X145807605Y-73843563D01*
X145875348Y-73847112D01*
X145881802Y-73847621D01*
X145890629Y-73848548D01*
X145902058Y-73849750D01*
X145922425Y-73849750D01*
X145928914Y-73849920D01*
X145996638Y-73853469D01*
X146010478Y-73851277D01*
X146029877Y-73849750D01*
X152747692Y-73849750D01*
X152814731Y-73869435D01*
X152835373Y-73886069D01*
X152869378Y-73920074D01*
X152869384Y-73920079D01*
X153050333Y-74046781D01*
X153050335Y-74046782D01*
X153050338Y-74046784D01*
X153136891Y-74087144D01*
X153189330Y-74133316D01*
X153208482Y-74200510D01*
X153188266Y-74267391D01*
X153136891Y-74311908D01*
X153050590Y-74352151D01*
X152985811Y-74397508D01*
X153656553Y-75068250D01*
X153652431Y-75068250D01*
X153558579Y-75083911D01*
X153446749Y-75144430D01*
X153360629Y-75237981D01*
X153309552Y-75354427D01*
X153303894Y-75422697D01*
X152632258Y-74751061D01*
X152586901Y-74815840D01*
X152493579Y-75015970D01*
X152493575Y-75015979D01*
X152436426Y-75229263D01*
X152436424Y-75229273D01*
X152417179Y-75449249D01*
X152417179Y-75449250D01*
X152436424Y-75669226D01*
X152436426Y-75669236D01*
X152493575Y-75882520D01*
X152493580Y-75882534D01*
X152586898Y-76082655D01*
X152586901Y-76082661D01*
X152632258Y-76147437D01*
X152632259Y-76147438D01*
X153299096Y-75480600D01*
X153299051Y-75481148D01*
X153330266Y-75604412D01*
X153399813Y-75710862D01*
X153500157Y-75788963D01*
X153620422Y-75830250D01*
X153656553Y-75830250D01*
X152985810Y-76500990D01*
X153050590Y-76546349D01*
X153050592Y-76546350D01*
X153244116Y-76636591D01*
X153296556Y-76682763D01*
X153315708Y-76749956D01*
X153295493Y-76816837D01*
X153244117Y-76861355D01*
X153050340Y-76951715D01*
X153050338Y-76951716D01*
X152869377Y-77078425D01*
X152713175Y-77234627D01*
X152586466Y-77415588D01*
X152586465Y-77415590D01*
X152493107Y-77615798D01*
X152493104Y-77615804D01*
X152435930Y-77829179D01*
X152435929Y-77829187D01*
X152416677Y-78049247D01*
X152416677Y-78049252D01*
X152435929Y-78269312D01*
X152435930Y-78269320D01*
X152493104Y-78482695D01*
X152493105Y-78482697D01*
X152493106Y-78482700D01*
X152555940Y-78617448D01*
X152586466Y-78682912D01*
X152586468Y-78682916D01*
X152713170Y-78863865D01*
X152713175Y-78863871D01*
X152869378Y-79020074D01*
X152869384Y-79020079D01*
X153050333Y-79146781D01*
X153050335Y-79146782D01*
X153050338Y-79146784D01*
X153095354Y-79167775D01*
X153136299Y-79186868D01*
X153188738Y-79233040D01*
X153207890Y-79300234D01*
X153187674Y-79367115D01*
X153136299Y-79411632D01*
X153050340Y-79451715D01*
X153050338Y-79451716D01*
X152869377Y-79578425D01*
X152713175Y-79734627D01*
X152586466Y-79915588D01*
X152586465Y-79915590D01*
X152493107Y-80115798D01*
X152493104Y-80115804D01*
X152435930Y-80329179D01*
X152435929Y-80329187D01*
X152416677Y-80549247D01*
X152416677Y-80549252D01*
X152435929Y-80769312D01*
X152435930Y-80769320D01*
X152493104Y-80982695D01*
X152493105Y-80982697D01*
X152493106Y-80982700D01*
X152502433Y-81002701D01*
X152586466Y-81182912D01*
X152586468Y-81182916D01*
X152713170Y-81363865D01*
X152713175Y-81363871D01*
X152869378Y-81520074D01*
X152869384Y-81520079D01*
X153050333Y-81646781D01*
X153050335Y-81646782D01*
X153050338Y-81646784D01*
X153126535Y-81682315D01*
X153136299Y-81686868D01*
X153188738Y-81733040D01*
X153207890Y-81800234D01*
X153187674Y-81867115D01*
X153136299Y-81911632D01*
X153050340Y-81951715D01*
X153050338Y-81951716D01*
X152869377Y-82078425D01*
X152713175Y-82234627D01*
X152586466Y-82415588D01*
X152586465Y-82415590D01*
X152493107Y-82615798D01*
X152493104Y-82615804D01*
X152435930Y-82829179D01*
X152435929Y-82829187D01*
X152416677Y-83049247D01*
X152416677Y-83049252D01*
X152435929Y-83269312D01*
X152435930Y-83269320D01*
X152493104Y-83482695D01*
X152493105Y-83482697D01*
X152493106Y-83482700D01*
X152502433Y-83502701D01*
X152586466Y-83682912D01*
X152586468Y-83682916D01*
X152713170Y-83863865D01*
X152713175Y-83863871D01*
X152869378Y-84020074D01*
X152869384Y-84020079D01*
X153050333Y-84146781D01*
X153050335Y-84146782D01*
X153050338Y-84146784D01*
X153125703Y-84181927D01*
X153243524Y-84236868D01*
X153295963Y-84283040D01*
X153315115Y-84350234D01*
X153294899Y-84417115D01*
X153243524Y-84461632D01*
X153050340Y-84551715D01*
X153050338Y-84551716D01*
X152869377Y-84678425D01*
X152713175Y-84834627D01*
X152586466Y-85015588D01*
X152586465Y-85015590D01*
X152493107Y-85215798D01*
X152493104Y-85215804D01*
X152435930Y-85429179D01*
X152435929Y-85429187D01*
X152416677Y-85649247D01*
X152416677Y-85649252D01*
X152435929Y-85869312D01*
X152435930Y-85869320D01*
X152493104Y-86082695D01*
X152493105Y-86082697D01*
X152493106Y-86082700D01*
X152570063Y-86247735D01*
X152586466Y-86282912D01*
X152586468Y-86282916D01*
X152713170Y-86463865D01*
X152713175Y-86463871D01*
X152869378Y-86620074D01*
X152869384Y-86620079D01*
X153050333Y-86746781D01*
X153050335Y-86746782D01*
X153050338Y-86746784D01*
X153117380Y-86778046D01*
X153136299Y-86786868D01*
X153188738Y-86833040D01*
X153207890Y-86900234D01*
X153187674Y-86967115D01*
X153136299Y-87011632D01*
X153050340Y-87051715D01*
X153050338Y-87051716D01*
X152869377Y-87178425D01*
X152713175Y-87334627D01*
X152586466Y-87515588D01*
X152586465Y-87515590D01*
X152493107Y-87715798D01*
X152493104Y-87715804D01*
X152435930Y-87929179D01*
X152435929Y-87929187D01*
X152416677Y-88149247D01*
X152416677Y-88149252D01*
X152435929Y-88369312D01*
X152435930Y-88369320D01*
X152493104Y-88582695D01*
X152493105Y-88582697D01*
X152493106Y-88582700D01*
X152547581Y-88699522D01*
X152586466Y-88782912D01*
X152586468Y-88782916D01*
X152713170Y-88963865D01*
X152713175Y-88963871D01*
X152869378Y-89120074D01*
X152869384Y-89120079D01*
X153050333Y-89246781D01*
X153050335Y-89246782D01*
X153050338Y-89246784D01*
X153250550Y-89340144D01*
X153463932Y-89397320D01*
X153621123Y-89411072D01*
X153683998Y-89416573D01*
X153684000Y-89416573D01*
X153684002Y-89416573D01*
X153739017Y-89411759D01*
X153904068Y-89397320D01*
X154117450Y-89340144D01*
X154317662Y-89246784D01*
X154498620Y-89120076D01*
X154654826Y-88963870D01*
X154781534Y-88782912D01*
X154874894Y-88582700D01*
X154932070Y-88369318D01*
X154951323Y-88149250D01*
X154932070Y-87929182D01*
X154874894Y-87715800D01*
X154781534Y-87515589D01*
X154654826Y-87334630D01*
X154498620Y-87178424D01*
X154498616Y-87178421D01*
X154498615Y-87178420D01*
X154317666Y-87051718D01*
X154317658Y-87051714D01*
X154254497Y-87022262D01*
X154231700Y-87011631D01*
X154179261Y-86965460D01*
X154160109Y-86898267D01*
X154180324Y-86831386D01*
X154231701Y-86786868D01*
X154250620Y-86778046D01*
X154317662Y-86746784D01*
X154498620Y-86620076D01*
X154632627Y-86486069D01*
X154693950Y-86452584D01*
X154720308Y-86449750D01*
X155566310Y-86449750D01*
X155633349Y-86469435D01*
X155653990Y-86486068D01*
X156190184Y-87022262D01*
X156317738Y-87149816D01*
X156350148Y-87170180D01*
X156361479Y-87178219D01*
X156391413Y-87202091D01*
X156425905Y-87218701D01*
X156438057Y-87225417D01*
X156470478Y-87245789D01*
X156506613Y-87258433D01*
X156519458Y-87263754D01*
X156532784Y-87270171D01*
X156553936Y-87280358D01*
X156553937Y-87280358D01*
X156553939Y-87280359D01*
X156591255Y-87288876D01*
X156604606Y-87292722D01*
X156640745Y-87305368D01*
X156678797Y-87309655D01*
X156692475Y-87311979D01*
X156729805Y-87320500D01*
X156775046Y-87320500D01*
X157078001Y-87320500D01*
X157145040Y-87340185D01*
X157190795Y-87392989D01*
X157202001Y-87444500D01*
X157202001Y-87565376D01*
X157208408Y-87624983D01*
X157258702Y-87759828D01*
X157258706Y-87759835D01*
X157344952Y-87875044D01*
X157344955Y-87875047D01*
X157460169Y-87961297D01*
X157466423Y-87964712D01*
X157515828Y-88014117D01*
X157530679Y-88082391D01*
X157510804Y-88141364D01*
X157378032Y-88344587D01*
X157278309Y-88571934D01*
X157217366Y-88812595D01*
X157196866Y-89059994D01*
X157196866Y-89060005D01*
X157217366Y-89307404D01*
X157278309Y-89548065D01*
X157378033Y-89775414D01*
X157433623Y-89860500D01*
X157513816Y-89983244D01*
X157681955Y-90165892D01*
X157785737Y-90246668D01*
X157826550Y-90303378D01*
X157833337Y-90352205D01*
X157831725Y-90378171D01*
X158440682Y-90987128D01*
X158388689Y-91006847D01*
X158255785Y-91098585D01*
X158148696Y-91219463D01*
X158085782Y-91339336D01*
X157478369Y-90731923D01*
X157378474Y-90884826D01*
X157278784Y-91112095D01*
X157217862Y-91352671D01*
X157217860Y-91352683D01*
X157197368Y-91599994D01*
X157197368Y-91600005D01*
X157217860Y-91847316D01*
X157217862Y-91847328D01*
X157278784Y-92087904D01*
X157378474Y-92315173D01*
X157478369Y-92468074D01*
X158085781Y-91860663D01*
X158148696Y-91980537D01*
X158255785Y-92101415D01*
X158388689Y-92193153D01*
X158440681Y-92212871D01*
X157831725Y-92821827D01*
X157878140Y-92857954D01*
X157878143Y-92857956D01*
X158096393Y-92976066D01*
X158096407Y-92976072D01*
X158331123Y-93056651D01*
X158575915Y-93097500D01*
X158824085Y-93097500D01*
X159068876Y-93056651D01*
X159303592Y-92976072D01*
X159303606Y-92976066D01*
X159521858Y-92857955D01*
X159521864Y-92857950D01*
X159568273Y-92821828D01*
X159568274Y-92821826D01*
X158959318Y-92212870D01*
X159011311Y-92193153D01*
X159144215Y-92101415D01*
X159251304Y-91980537D01*
X159314217Y-91860664D01*
X159921628Y-92468075D01*
X160021524Y-92315175D01*
X160121215Y-92087904D01*
X160182137Y-91847328D01*
X160182139Y-91847316D01*
X160202632Y-91600005D01*
X160202632Y-91599994D01*
X160182139Y-91352683D01*
X160182137Y-91352671D01*
X160121215Y-91112095D01*
X160021526Y-90884829D01*
X159921628Y-90731923D01*
X159314217Y-91339334D01*
X159251304Y-91219463D01*
X159144215Y-91098585D01*
X159011311Y-91006847D01*
X158959317Y-90987128D01*
X159568273Y-90378171D01*
X159566661Y-90352208D01*
X159582154Y-90284077D01*
X159614259Y-90246671D01*
X159718045Y-90165892D01*
X159886184Y-89983244D01*
X159929674Y-89916678D01*
X159982820Y-89871321D01*
X160033482Y-89860500D01*
X160230194Y-89860500D01*
X160267517Y-89851981D01*
X160281211Y-89849654D01*
X160319255Y-89845368D01*
X160355392Y-89832722D01*
X160368726Y-89828881D01*
X160406061Y-89820360D01*
X160440561Y-89803745D01*
X160453398Y-89798429D01*
X160489519Y-89785790D01*
X160489518Y-89785790D01*
X160489522Y-89785789D01*
X160521939Y-89765419D01*
X160534103Y-89758697D01*
X160568587Y-89742091D01*
X160598515Y-89718222D01*
X160609847Y-89710182D01*
X160642262Y-89689816D01*
X160769816Y-89562262D01*
X161447827Y-88884251D01*
X161479816Y-88852262D01*
X161500190Y-88819835D01*
X161508230Y-88808506D01*
X161512689Y-88802916D01*
X161532092Y-88778586D01*
X161548701Y-88744094D01*
X161555423Y-88731931D01*
X161575789Y-88699522D01*
X161588432Y-88663391D01*
X161593747Y-88650556D01*
X161610360Y-88616061D01*
X161618881Y-88578726D01*
X161622722Y-88565392D01*
X161635368Y-88529255D01*
X161639654Y-88491211D01*
X161641982Y-88477512D01*
X161650500Y-88440194D01*
X161650500Y-88259805D01*
X161650500Y-84905046D01*
X161650500Y-84859806D01*
X161641980Y-84822479D01*
X161639654Y-84808790D01*
X161635368Y-84770745D01*
X161622725Y-84734612D01*
X161618876Y-84721249D01*
X161610360Y-84683939D01*
X161593748Y-84649442D01*
X161588433Y-84636613D01*
X161575789Y-84600478D01*
X161555426Y-84568070D01*
X161548698Y-84555897D01*
X161532093Y-84521415D01*
X161532090Y-84521411D01*
X161508229Y-84491490D01*
X161500182Y-84480150D01*
X161479816Y-84447738D01*
X161433258Y-84401180D01*
X161352262Y-84320184D01*
X160536819Y-83504741D01*
X160503334Y-83443418D01*
X160500500Y-83417060D01*
X160500500Y-82817690D01*
X160520185Y-82750651D01*
X160553375Y-82716116D01*
X160571401Y-82703495D01*
X160738495Y-82536401D01*
X160874035Y-82342830D01*
X160973903Y-82128663D01*
X161035063Y-81900408D01*
X161055659Y-81665000D01*
X161035063Y-81429592D01*
X160973903Y-81201337D01*
X160874035Y-80987171D01*
X160870904Y-80982700D01*
X160738496Y-80793600D01*
X160714208Y-80769312D01*
X160616567Y-80671671D01*
X160583084Y-80610351D01*
X160588068Y-80540659D01*
X160629939Y-80484725D01*
X160660915Y-80467810D01*
X160792331Y-80418796D01*
X160907546Y-80332546D01*
X160993796Y-80217331D01*
X161044091Y-80082483D01*
X161050500Y-80022873D01*
X161050499Y-78227128D01*
X161044091Y-78167517D01*
X161035257Y-78143833D01*
X160993797Y-78032671D01*
X160993793Y-78032664D01*
X160907547Y-77917455D01*
X160907544Y-77917452D01*
X160792335Y-77831206D01*
X160792328Y-77831202D01*
X160657482Y-77780908D01*
X160657483Y-77780908D01*
X160597883Y-77774501D01*
X160597881Y-77774500D01*
X160597873Y-77774500D01*
X160597864Y-77774500D01*
X158802129Y-77774500D01*
X158802123Y-77774501D01*
X158742516Y-77780908D01*
X158607671Y-77831202D01*
X158607664Y-77831206D01*
X158492455Y-77917452D01*
X158492452Y-77917455D01*
X158406206Y-78032664D01*
X158406202Y-78032671D01*
X158364742Y-78143833D01*
X158322871Y-78199767D01*
X158257407Y-78224184D01*
X158248560Y-78224500D01*
X157874500Y-78224500D01*
X157807461Y-78204815D01*
X157761706Y-78152011D01*
X157750500Y-78100500D01*
X157750500Y-74123611D01*
X157770185Y-74056572D01*
X157786819Y-74035930D01*
X157936680Y-73886069D01*
X157998003Y-73852584D01*
X158024361Y-73849750D01*
X158494201Y-73849750D01*
X158561240Y-73869435D01*
X158568511Y-73874482D01*
X158607669Y-73903796D01*
X158607670Y-73903796D01*
X158607671Y-73903797D01*
X158651318Y-73920076D01*
X158739598Y-73953002D01*
X158795531Y-73994873D01*
X158819949Y-74060337D01*
X158805098Y-74128610D01*
X158783947Y-74156865D01*
X158661886Y-74278926D01*
X158526400Y-74472420D01*
X158526399Y-74472422D01*
X158426570Y-74686507D01*
X158426567Y-74686513D01*
X158369364Y-74899999D01*
X158369364Y-74900000D01*
X159266314Y-74900000D01*
X159240507Y-74940156D01*
X159200000Y-75078111D01*
X159200000Y-75221889D01*
X159240507Y-75359844D01*
X159266314Y-75400000D01*
X158369364Y-75400000D01*
X158426567Y-75613486D01*
X158426570Y-75613492D01*
X158526399Y-75827578D01*
X158661894Y-76021082D01*
X158828917Y-76188105D01*
X159022421Y-76323600D01*
X159236507Y-76423429D01*
X159236516Y-76423433D01*
X159450000Y-76480634D01*
X159450000Y-75585501D01*
X159557685Y-75634680D01*
X159664237Y-75650000D01*
X159735763Y-75650000D01*
X159842315Y-75634680D01*
X159950000Y-75585501D01*
X159950000Y-76480633D01*
X160163483Y-76423433D01*
X160163492Y-76423429D01*
X160377578Y-76323600D01*
X160571082Y-76188105D01*
X160738105Y-76021082D01*
X160873600Y-75827578D01*
X160973429Y-75613492D01*
X160973432Y-75613486D01*
X161030636Y-75400000D01*
X160133686Y-75400000D01*
X160159493Y-75359844D01*
X160200000Y-75221889D01*
X160200000Y-75078111D01*
X160159493Y-74940156D01*
X160133686Y-74900000D01*
X161030636Y-74900000D01*
X161030635Y-74899999D01*
X160973432Y-74686513D01*
X160973429Y-74686507D01*
X160873600Y-74472422D01*
X160873599Y-74472420D01*
X160738113Y-74278926D01*
X160738108Y-74278920D01*
X160616053Y-74156865D01*
X160582568Y-74095542D01*
X160587552Y-74025850D01*
X160629424Y-73969917D01*
X160660400Y-73953002D01*
X160792331Y-73903796D01*
X160907546Y-73817546D01*
X160993796Y-73702331D01*
X161044091Y-73567483D01*
X161050500Y-73507873D01*
X161050499Y-71712128D01*
X161044091Y-71652517D01*
X161035257Y-71628833D01*
X160993797Y-71517671D01*
X160993793Y-71517664D01*
X160907547Y-71402455D01*
X160907544Y-71402452D01*
X160792335Y-71316206D01*
X160792328Y-71316202D01*
X160657482Y-71265908D01*
X160657483Y-71265908D01*
X160597883Y-71259501D01*
X160597881Y-71259500D01*
X160597873Y-71259500D01*
X160597864Y-71259500D01*
X158802129Y-71259500D01*
X158802123Y-71259501D01*
X158742516Y-71265908D01*
X158607671Y-71316202D01*
X158607664Y-71316206D01*
X158492455Y-71402452D01*
X158492452Y-71402455D01*
X158406206Y-71517664D01*
X158406202Y-71517671D01*
X158355908Y-71652517D01*
X158350677Y-71701179D01*
X158349501Y-71712123D01*
X158349500Y-71712135D01*
X158349500Y-71924750D01*
X158329815Y-71991789D01*
X158277011Y-72037544D01*
X158225500Y-72048750D01*
X157680627Y-72048750D01*
X157661228Y-72047223D01*
X157647389Y-72045031D01*
X157647388Y-72045031D01*
X157605563Y-72047223D01*
X157579670Y-72048580D01*
X157573180Y-72048750D01*
X156026826Y-72048750D01*
X156020337Y-72048580D01*
X155952610Y-72045030D01*
X155938772Y-72047223D01*
X155919373Y-72048750D01*
X154620308Y-72048750D01*
X154553269Y-72029065D01*
X154532627Y-72012431D01*
X154498621Y-71978425D01*
X154498615Y-71978420D01*
X154317666Y-71851718D01*
X154317662Y-71851716D01*
X154317660Y-71851715D01*
X154117450Y-71758356D01*
X154117447Y-71758355D01*
X154117445Y-71758354D01*
X153904070Y-71701180D01*
X153904062Y-71701179D01*
X153684002Y-71681927D01*
X153683998Y-71681927D01*
X153463937Y-71701179D01*
X153463929Y-71701180D01*
X153250554Y-71758354D01*
X153250548Y-71758357D01*
X153050340Y-71851715D01*
X153050338Y-71851716D01*
X152869378Y-71978424D01*
X152835374Y-72012430D01*
X152774052Y-72045916D01*
X152747692Y-72048750D01*
X146373612Y-72048750D01*
X146306573Y-72029065D01*
X146285931Y-72012431D01*
X144843764Y-70570265D01*
X144831126Y-70555468D01*
X144822887Y-70544128D01*
X144772483Y-70498743D01*
X144767775Y-70494275D01*
X144753383Y-70479883D01*
X144737554Y-70467063D01*
X144732627Y-70462855D01*
X144682220Y-70417470D01*
X144682213Y-70417465D01*
X144670070Y-70410454D01*
X144654043Y-70399438D01*
X144643153Y-70390620D01*
X144643147Y-70390616D01*
X144582712Y-70359822D01*
X144577009Y-70356726D01*
X144575959Y-70356120D01*
X144533985Y-70331886D01*
X144485771Y-70281322D01*
X144472547Y-70212715D01*
X144498514Y-70147850D01*
X144555428Y-70107320D01*
X144595986Y-70100500D01*
X145699840Y-70100500D01*
X145700046Y-70100541D01*
X145724600Y-70100541D01*
X145750000Y-70100541D01*
X145774554Y-70100541D01*
X145774760Y-70100500D01*
X162125500Y-70100500D01*
X162192539Y-70120185D01*
X162238294Y-70172989D01*
X162249500Y-70224500D01*
X162249500Y-102975500D01*
X162229815Y-103042539D01*
X162177011Y-103088294D01*
X162125500Y-103099500D01*
X161920000Y-103099500D01*
X129374312Y-103050187D01*
X129307303Y-103030401D01*
X129261628Y-102977527D01*
X129250500Y-102926187D01*
X129250500Y-70224500D01*
X129270185Y-70157461D01*
X129322989Y-70111706D01*
X129374500Y-70100500D01*
X136054013Y-70100500D01*
X136121052Y-70120185D01*
G37*
%TD.AperFunction*%
%TA.AperFunction,Conductor*%
G36*
X155642678Y-73869435D02*
G01*
X155663320Y-73886069D01*
X155913181Y-74135930D01*
X155946666Y-74197253D01*
X155949500Y-74223611D01*
X155949500Y-78469373D01*
X155947973Y-78488772D01*
X155945781Y-78502611D01*
X155949330Y-78570335D01*
X155949500Y-78576824D01*
X155949500Y-78597188D01*
X155951628Y-78617448D01*
X155952136Y-78623909D01*
X155955686Y-78691643D01*
X155955688Y-78691653D01*
X155959315Y-78705189D01*
X155962860Y-78724314D01*
X155964325Y-78738249D01*
X155964326Y-78738256D01*
X155964328Y-78738262D01*
X155985282Y-78802755D01*
X155987125Y-78808976D01*
X156004679Y-78874486D01*
X156004684Y-78874498D01*
X156011043Y-78886978D01*
X156018488Y-78904949D01*
X156022821Y-78918284D01*
X156052694Y-78970025D01*
X156056726Y-78977009D01*
X156059822Y-78982712D01*
X156090616Y-79043147D01*
X156090620Y-79043153D01*
X156099438Y-79054043D01*
X156110454Y-79070070D01*
X156117465Y-79082213D01*
X156117470Y-79082220D01*
X156162855Y-79132627D01*
X156167063Y-79137554D01*
X156179883Y-79153383D01*
X156194275Y-79167775D01*
X156198743Y-79172483D01*
X156244128Y-79222887D01*
X156255468Y-79231126D01*
X156270265Y-79243764D01*
X156731236Y-79704736D01*
X156743871Y-79719529D01*
X156752110Y-79730869D01*
X156752115Y-79730875D01*
X156802504Y-79776244D01*
X156807197Y-79780697D01*
X156821620Y-79795120D01*
X156837456Y-79807943D01*
X156842375Y-79812145D01*
X156867708Y-79834954D01*
X156892784Y-79857533D01*
X156904920Y-79864540D01*
X156920952Y-79875557D01*
X156931851Y-79884383D01*
X156992292Y-79915178D01*
X156997975Y-79918265D01*
X157056707Y-79952174D01*
X157056712Y-79952177D01*
X157056713Y-79952177D01*
X157056716Y-79952179D01*
X157070050Y-79956511D01*
X157088022Y-79963956D01*
X157100512Y-79970320D01*
X157100514Y-79970320D01*
X157100515Y-79970321D01*
X157122956Y-79976333D01*
X157166028Y-79987874D01*
X157172227Y-79989710D01*
X157236744Y-80010674D01*
X157250688Y-80012139D01*
X157269814Y-80015685D01*
X157279441Y-80018264D01*
X157283355Y-80019313D01*
X157351098Y-80022862D01*
X157357552Y-80023371D01*
X157366379Y-80024298D01*
X157377808Y-80025500D01*
X157398175Y-80025500D01*
X157404664Y-80025670D01*
X157472388Y-80029219D01*
X157486228Y-80027027D01*
X157505627Y-80025500D01*
X158248560Y-80025500D01*
X158315599Y-80045185D01*
X158361354Y-80097989D01*
X158364742Y-80106167D01*
X158406202Y-80217328D01*
X158406206Y-80217335D01*
X158492452Y-80332544D01*
X158492455Y-80332547D01*
X158607664Y-80418793D01*
X158607671Y-80418797D01*
X158739081Y-80467810D01*
X158795015Y-80509681D01*
X158819432Y-80575145D01*
X158804580Y-80643418D01*
X158783430Y-80671673D01*
X158661503Y-80793600D01*
X158525965Y-80987169D01*
X158525964Y-80987171D01*
X158426098Y-81201335D01*
X158426094Y-81201344D01*
X158364938Y-81429586D01*
X158364936Y-81429596D01*
X158344341Y-81664999D01*
X158344341Y-81665000D01*
X158364936Y-81900403D01*
X158364938Y-81900413D01*
X158426094Y-82128655D01*
X158426096Y-82128659D01*
X158426097Y-82128663D01*
X158500894Y-82289065D01*
X158525965Y-82342830D01*
X158525967Y-82342834D01*
X158661501Y-82536395D01*
X158661506Y-82536402D01*
X158828594Y-82703491D01*
X158828597Y-82703493D01*
X158828599Y-82703495D01*
X158846622Y-82716115D01*
X158890247Y-82770689D01*
X158899500Y-82817690D01*
X158899500Y-83890191D01*
X158899501Y-83890200D01*
X158908017Y-83927518D01*
X158910345Y-83941217D01*
X158914633Y-83979260D01*
X158927271Y-84015380D01*
X158931119Y-84028735D01*
X158939639Y-84066061D01*
X158956250Y-84100554D01*
X158961570Y-84113397D01*
X158974212Y-84149525D01*
X158994572Y-84181927D01*
X159001296Y-84194093D01*
X159017910Y-84228589D01*
X159041771Y-84258510D01*
X159049817Y-84269849D01*
X159070182Y-84302259D01*
X159070184Y-84302262D01*
X159578241Y-84810319D01*
X159611726Y-84871642D01*
X159606742Y-84941334D01*
X159564870Y-84997267D01*
X159499406Y-85021684D01*
X159490560Y-85022000D01*
X157654629Y-85022000D01*
X157654623Y-85022001D01*
X157595016Y-85028408D01*
X157460171Y-85078702D01*
X157460164Y-85078706D01*
X157344955Y-85164952D01*
X157344952Y-85164955D01*
X157258706Y-85280164D01*
X157258702Y-85280171D01*
X157208408Y-85415017D01*
X157202000Y-85474624D01*
X157201858Y-85477265D01*
X157201654Y-85477842D01*
X157201645Y-85477928D01*
X157201624Y-85477925D01*
X157178597Y-85543149D01*
X157123409Y-85585998D01*
X157053816Y-85592208D01*
X156991913Y-85559808D01*
X156990356Y-85558278D01*
X156451512Y-85019434D01*
X156451509Y-85019432D01*
X156419099Y-84999067D01*
X156407760Y-84991021D01*
X156377839Y-84967160D01*
X156343343Y-84950546D01*
X156331177Y-84943822D01*
X156298774Y-84923462D01*
X156298775Y-84923462D01*
X156291902Y-84921057D01*
X156262643Y-84910818D01*
X156249804Y-84905500D01*
X156215311Y-84888889D01*
X156177985Y-84880369D01*
X156164630Y-84876521D01*
X156128510Y-84863883D01*
X156128506Y-84863882D01*
X156128505Y-84863882D01*
X156110389Y-84861840D01*
X156090467Y-84859595D01*
X156076768Y-84857267D01*
X156039450Y-84848751D01*
X156039446Y-84848750D01*
X156039444Y-84848750D01*
X156039441Y-84848750D01*
X154720308Y-84848750D01*
X154653269Y-84829065D01*
X154632627Y-84812431D01*
X154498621Y-84678425D01*
X154498615Y-84678420D01*
X154317666Y-84551718D01*
X154317662Y-84551716D01*
X154176825Y-84486043D01*
X154124474Y-84461631D01*
X154072036Y-84415460D01*
X154052884Y-84348266D01*
X154073100Y-84281385D01*
X154124475Y-84236868D01*
X154317662Y-84146784D01*
X154498620Y-84020076D01*
X154654826Y-83863870D01*
X154781534Y-83682912D01*
X154874894Y-83482700D01*
X154932070Y-83269318D01*
X154951323Y-83049250D01*
X154932070Y-82829182D01*
X154874894Y-82615800D01*
X154781534Y-82415589D01*
X154692942Y-82289065D01*
X154654827Y-82234631D01*
X154654823Y-82234627D01*
X154498620Y-82078424D01*
X154498616Y-82078421D01*
X154498615Y-82078420D01*
X154317666Y-81951718D01*
X154317658Y-81951714D01*
X154231701Y-81911632D01*
X154179261Y-81865460D01*
X154160109Y-81798267D01*
X154180324Y-81731386D01*
X154231701Y-81686868D01*
X154241465Y-81682315D01*
X154317662Y-81646784D01*
X154498620Y-81520076D01*
X154654826Y-81363870D01*
X154781534Y-81182912D01*
X154874894Y-80982700D01*
X154932070Y-80769318D01*
X154951323Y-80549250D01*
X154950571Y-80540659D01*
X154933820Y-80349187D01*
X154932070Y-80329182D01*
X154874894Y-80115800D01*
X154781534Y-79915589D01*
X154707589Y-79809984D01*
X154654827Y-79734631D01*
X154624932Y-79704736D01*
X154498620Y-79578424D01*
X154498616Y-79578421D01*
X154498615Y-79578420D01*
X154317666Y-79451718D01*
X154317658Y-79451714D01*
X154231701Y-79411632D01*
X154179261Y-79365460D01*
X154160109Y-79298267D01*
X154180324Y-79231386D01*
X154231701Y-79186868D01*
X154317662Y-79146784D01*
X154498620Y-79020076D01*
X154654826Y-78863870D01*
X154781534Y-78682912D01*
X154874894Y-78482700D01*
X154932070Y-78269318D01*
X154951323Y-78049250D01*
X154949872Y-78032669D01*
X154939793Y-77917455D01*
X154932070Y-77829182D01*
X154874894Y-77615800D01*
X154781534Y-77415589D01*
X154672848Y-77260368D01*
X154654827Y-77234631D01*
X154612627Y-77192431D01*
X154498620Y-77078424D01*
X154498616Y-77078421D01*
X154498615Y-77078420D01*
X154317666Y-76951718D01*
X154317662Y-76951716D01*
X154123882Y-76861355D01*
X154071443Y-76815183D01*
X154052291Y-76747989D01*
X154072507Y-76681108D01*
X154123883Y-76636590D01*
X154317416Y-76546345D01*
X154317417Y-76546344D01*
X154382188Y-76500991D01*
X153711448Y-75830250D01*
X153715569Y-75830250D01*
X153809421Y-75814589D01*
X153921251Y-75754070D01*
X154007371Y-75660519D01*
X154058448Y-75544073D01*
X154064105Y-75475802D01*
X154735741Y-76147438D01*
X154781094Y-76082667D01*
X154781100Y-76082657D01*
X154874419Y-75882534D01*
X154874424Y-75882520D01*
X154931573Y-75669236D01*
X154931575Y-75669226D01*
X154950821Y-75449250D01*
X154950821Y-75449249D01*
X154931575Y-75229273D01*
X154931573Y-75229263D01*
X154874424Y-75015979D01*
X154874420Y-75015970D01*
X154781096Y-74815836D01*
X154735741Y-74751061D01*
X154735740Y-74751060D01*
X154068903Y-75417898D01*
X154068949Y-75417352D01*
X154037734Y-75294088D01*
X153968187Y-75187638D01*
X153867843Y-75109537D01*
X153747578Y-75068250D01*
X153711448Y-75068250D01*
X154382188Y-74397509D01*
X154382187Y-74397508D01*
X154317411Y-74352151D01*
X154317405Y-74352148D01*
X154231109Y-74311908D01*
X154178669Y-74265736D01*
X154159517Y-74198543D01*
X154179732Y-74131662D01*
X154231109Y-74087144D01*
X154317662Y-74046784D01*
X154498620Y-73920076D01*
X154532627Y-73886069D01*
X154593950Y-73852584D01*
X154620308Y-73849750D01*
X155575639Y-73849750D01*
X155642678Y-73869435D01*
G37*
%TD.AperFunction*%
%TD*%
M02*
