M48
; DRILL file {KiCad 7.0.10-7.0.10~ubuntu22.04.1} date Thu 18 Apr 2024 04:44:27 PM IST
; FORMAT={-:-/ absolute / inch / decimal}
; #@! TF.CreationDate,2024-04-18T16:44:27+05:30
; #@! TF.GenerationSoftware,Kicad,Pcbnew,7.0.10-7.0.10~ubuntu22.04.1
; #@! TF.FileFunction,MixedPlating,1,2
FMAT,2
INCH
; #@! TA.AperFunction,Plated,PTH,ComponentDrill
T1C0.0300
; #@! TA.AperFunction,Plated,PTH,ComponentDrill
T2C0.0394
; #@! TA.AperFunction,Plated,PTH,ComponentDrill
T3C0.0524
%
G90
G05
T1
X5.4128Y-2.8728
X5.4128Y-2.9712
X5.4128Y-3.0736
X5.4128Y-3.172
X5.4128Y-3.2704
X5.4128Y-3.3728
X5.4128Y-3.4712
X6.0506Y-2.872
X6.0506Y-2.9704
X6.0506Y-3.0728
X6.0506Y-3.1712
X6.0506Y-3.2697
X6.0506Y-3.372
X6.0506Y-3.4704
T2
X5.187Y-2.8587
X5.187Y-2.9587
X5.187Y-3.8449
X5.187Y-3.9449
X5.3972Y-3.9429
X5.4972Y-3.9429
X5.5972Y-3.9429
X5.6972Y-3.9429
X5.7972Y-3.9429
X5.8972Y-3.9429
X5.9972Y-3.9429
X6.0972Y-3.9429
X6.2874Y-2.8587
X6.2874Y-2.9587
X6.2874Y-3.1152
X6.2874Y-3.2152
X6.2894Y-3.8409
X6.2894Y-3.9409
T3
X5.1752Y-3.2756
X5.1752Y-3.3756
X5.1752Y-3.4756
X5.3769Y-3.7098
X5.4769Y-3.7098
X5.5769Y-3.7098
X5.8236Y-3.7087
X5.9236Y-3.7087
X6.0236Y-3.7087
X6.248Y-3.4063
X6.248Y-3.5063
X6.248Y-3.6063
M30
