%TF.GenerationSoftware,KiCad,Pcbnew,7.0.10-7.0.10~ubuntu22.04.1*%
%TF.CreationDate,2024-04-18T16:44:08+05:30*%
%TF.ProjectId,EspXiao-FC,45737058-6961-46f2-9d46-432e6b696361,rev?*%
%TF.SameCoordinates,Original*%
%TF.FileFunction,Profile,NP*%
%FSLAX46Y46*%
G04 Gerber Fmt 4.6, Leading zero omitted, Abs format (unit mm)*
G04 Created by KiCad (PCBNEW 7.0.10-7.0.10~ubuntu22.04.1) date 2024-04-18 16:44:08*
%MOMM*%
%LPD*%
G01*
G04 APERTURE LIST*
%TA.AperFunction,Profile*%
%ADD10C,0.100000*%
%TD*%
%ADD11C,0.150000*%
G04 APERTURE END LIST*
D10*
X145724600Y-70074600D02*
X145750000Y-70074600D01*
X145750000Y-70100000D01*
X145724600Y-70100000D01*
X145724600Y-70074600D01*
X129250000Y-70100000D02*
X162250000Y-70100000D01*
X162250000Y-103100000D01*
X129250000Y-103100000D01*
X129250000Y-70100000D01*
D11*
X141083334Y-107254819D02*
X141702381Y-107254819D01*
X141702381Y-107254819D02*
X141369048Y-107635771D01*
X141369048Y-107635771D02*
X141511905Y-107635771D01*
X141511905Y-107635771D02*
X141607143Y-107683390D01*
X141607143Y-107683390D02*
X141654762Y-107731009D01*
X141654762Y-107731009D02*
X141702381Y-107826247D01*
X141702381Y-107826247D02*
X141702381Y-108064342D01*
X141702381Y-108064342D02*
X141654762Y-108159580D01*
X141654762Y-108159580D02*
X141607143Y-108207200D01*
X141607143Y-108207200D02*
X141511905Y-108254819D01*
X141511905Y-108254819D02*
X141226191Y-108254819D01*
X141226191Y-108254819D02*
X141130953Y-108207200D01*
X141130953Y-108207200D02*
X141083334Y-108159580D01*
X142035715Y-107254819D02*
X142654762Y-107254819D01*
X142654762Y-107254819D02*
X142321429Y-107635771D01*
X142321429Y-107635771D02*
X142464286Y-107635771D01*
X142464286Y-107635771D02*
X142559524Y-107683390D01*
X142559524Y-107683390D02*
X142607143Y-107731009D01*
X142607143Y-107731009D02*
X142654762Y-107826247D01*
X142654762Y-107826247D02*
X142654762Y-108064342D01*
X142654762Y-108064342D02*
X142607143Y-108159580D01*
X142607143Y-108159580D02*
X142559524Y-108207200D01*
X142559524Y-108207200D02*
X142464286Y-108254819D01*
X142464286Y-108254819D02*
X142178572Y-108254819D01*
X142178572Y-108254819D02*
X142083334Y-108207200D01*
X142083334Y-108207200D02*
X142035715Y-108159580D01*
X143083334Y-108159580D02*
X143130953Y-108207200D01*
X143130953Y-108207200D02*
X143083334Y-108254819D01*
X143083334Y-108254819D02*
X143035715Y-108207200D01*
X143035715Y-108207200D02*
X143083334Y-108159580D01*
X143083334Y-108159580D02*
X143083334Y-108254819D01*
X143750000Y-107254819D02*
X143845238Y-107254819D01*
X143845238Y-107254819D02*
X143940476Y-107302438D01*
X143940476Y-107302438D02*
X143988095Y-107350057D01*
X143988095Y-107350057D02*
X144035714Y-107445295D01*
X144035714Y-107445295D02*
X144083333Y-107635771D01*
X144083333Y-107635771D02*
X144083333Y-107873866D01*
X144083333Y-107873866D02*
X144035714Y-108064342D01*
X144035714Y-108064342D02*
X143988095Y-108159580D01*
X143988095Y-108159580D02*
X143940476Y-108207200D01*
X143940476Y-108207200D02*
X143845238Y-108254819D01*
X143845238Y-108254819D02*
X143750000Y-108254819D01*
X143750000Y-108254819D02*
X143654762Y-108207200D01*
X143654762Y-108207200D02*
X143607143Y-108159580D01*
X143607143Y-108159580D02*
X143559524Y-108064342D01*
X143559524Y-108064342D02*
X143511905Y-107873866D01*
X143511905Y-107873866D02*
X143511905Y-107635771D01*
X143511905Y-107635771D02*
X143559524Y-107445295D01*
X143559524Y-107445295D02*
X143607143Y-107350057D01*
X143607143Y-107350057D02*
X143654762Y-107302438D01*
X143654762Y-107302438D02*
X143750000Y-107254819D01*
X144702381Y-107254819D02*
X144797619Y-107254819D01*
X144797619Y-107254819D02*
X144892857Y-107302438D01*
X144892857Y-107302438D02*
X144940476Y-107350057D01*
X144940476Y-107350057D02*
X144988095Y-107445295D01*
X144988095Y-107445295D02*
X145035714Y-107635771D01*
X145035714Y-107635771D02*
X145035714Y-107873866D01*
X145035714Y-107873866D02*
X144988095Y-108064342D01*
X144988095Y-108064342D02*
X144940476Y-108159580D01*
X144940476Y-108159580D02*
X144892857Y-108207200D01*
X144892857Y-108207200D02*
X144797619Y-108254819D01*
X144797619Y-108254819D02*
X144702381Y-108254819D01*
X144702381Y-108254819D02*
X144607143Y-108207200D01*
X144607143Y-108207200D02*
X144559524Y-108159580D01*
X144559524Y-108159580D02*
X144511905Y-108064342D01*
X144511905Y-108064342D02*
X144464286Y-107873866D01*
X144464286Y-107873866D02*
X144464286Y-107635771D01*
X144464286Y-107635771D02*
X144511905Y-107445295D01*
X144511905Y-107445295D02*
X144559524Y-107350057D01*
X144559524Y-107350057D02*
X144607143Y-107302438D01*
X144607143Y-107302438D02*
X144702381Y-107254819D01*
X145654762Y-107254819D02*
X145750000Y-107254819D01*
X145750000Y-107254819D02*
X145845238Y-107302438D01*
X145845238Y-107302438D02*
X145892857Y-107350057D01*
X145892857Y-107350057D02*
X145940476Y-107445295D01*
X145940476Y-107445295D02*
X145988095Y-107635771D01*
X145988095Y-107635771D02*
X145988095Y-107873866D01*
X145988095Y-107873866D02*
X145940476Y-108064342D01*
X145940476Y-108064342D02*
X145892857Y-108159580D01*
X145892857Y-108159580D02*
X145845238Y-108207200D01*
X145845238Y-108207200D02*
X145750000Y-108254819D01*
X145750000Y-108254819D02*
X145654762Y-108254819D01*
X145654762Y-108254819D02*
X145559524Y-108207200D01*
X145559524Y-108207200D02*
X145511905Y-108159580D01*
X145511905Y-108159580D02*
X145464286Y-108064342D01*
X145464286Y-108064342D02*
X145416667Y-107873866D01*
X145416667Y-107873866D02*
X145416667Y-107635771D01*
X145416667Y-107635771D02*
X145464286Y-107445295D01*
X145464286Y-107445295D02*
X145511905Y-107350057D01*
X145511905Y-107350057D02*
X145559524Y-107302438D01*
X145559524Y-107302438D02*
X145654762Y-107254819D01*
X146607143Y-107254819D02*
X146702381Y-107254819D01*
X146702381Y-107254819D02*
X146797619Y-107302438D01*
X146797619Y-107302438D02*
X146845238Y-107350057D01*
X146845238Y-107350057D02*
X146892857Y-107445295D01*
X146892857Y-107445295D02*
X146940476Y-107635771D01*
X146940476Y-107635771D02*
X146940476Y-107873866D01*
X146940476Y-107873866D02*
X146892857Y-108064342D01*
X146892857Y-108064342D02*
X146845238Y-108159580D01*
X146845238Y-108159580D02*
X146797619Y-108207200D01*
X146797619Y-108207200D02*
X146702381Y-108254819D01*
X146702381Y-108254819D02*
X146607143Y-108254819D01*
X146607143Y-108254819D02*
X146511905Y-108207200D01*
X146511905Y-108207200D02*
X146464286Y-108159580D01*
X146464286Y-108159580D02*
X146416667Y-108064342D01*
X146416667Y-108064342D02*
X146369048Y-107873866D01*
X146369048Y-107873866D02*
X146369048Y-107635771D01*
X146369048Y-107635771D02*
X146416667Y-107445295D01*
X146416667Y-107445295D02*
X146464286Y-107350057D01*
X146464286Y-107350057D02*
X146511905Y-107302438D01*
X146511905Y-107302438D02*
X146607143Y-107254819D01*
X148130953Y-108254819D02*
X148130953Y-107588152D01*
X148130953Y-107683390D02*
X148178572Y-107635771D01*
X148178572Y-107635771D02*
X148273810Y-107588152D01*
X148273810Y-107588152D02*
X148416667Y-107588152D01*
X148416667Y-107588152D02*
X148511905Y-107635771D01*
X148511905Y-107635771D02*
X148559524Y-107731009D01*
X148559524Y-107731009D02*
X148559524Y-108254819D01*
X148559524Y-107731009D02*
X148607143Y-107635771D01*
X148607143Y-107635771D02*
X148702381Y-107588152D01*
X148702381Y-107588152D02*
X148845238Y-107588152D01*
X148845238Y-107588152D02*
X148940477Y-107635771D01*
X148940477Y-107635771D02*
X148988096Y-107731009D01*
X148988096Y-107731009D02*
X148988096Y-108254819D01*
X149464286Y-108254819D02*
X149464286Y-107588152D01*
X149464286Y-107683390D02*
X149511905Y-107635771D01*
X149511905Y-107635771D02*
X149607143Y-107588152D01*
X149607143Y-107588152D02*
X149750000Y-107588152D01*
X149750000Y-107588152D02*
X149845238Y-107635771D01*
X149845238Y-107635771D02*
X149892857Y-107731009D01*
X149892857Y-107731009D02*
X149892857Y-108254819D01*
X149892857Y-107731009D02*
X149940476Y-107635771D01*
X149940476Y-107635771D02*
X150035714Y-107588152D01*
X150035714Y-107588152D02*
X150178571Y-107588152D01*
X150178571Y-107588152D02*
X150273810Y-107635771D01*
X150273810Y-107635771D02*
X150321429Y-107731009D01*
X150321429Y-107731009D02*
X150321429Y-108254819D01*
D10*
X129250000Y-103600000D02*
X129250000Y-109536420D01*
X162250000Y-103600000D02*
X162250000Y-109536420D01*
X129250000Y-108950000D02*
X162250000Y-108950000D01*
X129250000Y-108950000D02*
X162250000Y-108950000D01*
X129250000Y-108950000D02*
X130376504Y-108363579D01*
X129250000Y-108950000D02*
X130376504Y-109536421D01*
X162250000Y-108950000D02*
X161123496Y-109536421D01*
X162250000Y-108950000D02*
X161123496Y-108363579D01*
D11*
X123204819Y-91266665D02*
X123204819Y-90647618D01*
X123204819Y-90647618D02*
X123585771Y-90980951D01*
X123585771Y-90980951D02*
X123585771Y-90838094D01*
X123585771Y-90838094D02*
X123633390Y-90742856D01*
X123633390Y-90742856D02*
X123681009Y-90695237D01*
X123681009Y-90695237D02*
X123776247Y-90647618D01*
X123776247Y-90647618D02*
X124014342Y-90647618D01*
X124014342Y-90647618D02*
X124109580Y-90695237D01*
X124109580Y-90695237D02*
X124157200Y-90742856D01*
X124157200Y-90742856D02*
X124204819Y-90838094D01*
X124204819Y-90838094D02*
X124204819Y-91123808D01*
X124204819Y-91123808D02*
X124157200Y-91219046D01*
X124157200Y-91219046D02*
X124109580Y-91266665D01*
X123204819Y-90314284D02*
X123204819Y-89695237D01*
X123204819Y-89695237D02*
X123585771Y-90028570D01*
X123585771Y-90028570D02*
X123585771Y-89885713D01*
X123585771Y-89885713D02*
X123633390Y-89790475D01*
X123633390Y-89790475D02*
X123681009Y-89742856D01*
X123681009Y-89742856D02*
X123776247Y-89695237D01*
X123776247Y-89695237D02*
X124014342Y-89695237D01*
X124014342Y-89695237D02*
X124109580Y-89742856D01*
X124109580Y-89742856D02*
X124157200Y-89790475D01*
X124157200Y-89790475D02*
X124204819Y-89885713D01*
X124204819Y-89885713D02*
X124204819Y-90171427D01*
X124204819Y-90171427D02*
X124157200Y-90266665D01*
X124157200Y-90266665D02*
X124109580Y-90314284D01*
X124109580Y-89266665D02*
X124157200Y-89219046D01*
X124157200Y-89219046D02*
X124204819Y-89266665D01*
X124204819Y-89266665D02*
X124157200Y-89314284D01*
X124157200Y-89314284D02*
X124109580Y-89266665D01*
X124109580Y-89266665D02*
X124204819Y-89266665D01*
X123204819Y-88599999D02*
X123204819Y-88504761D01*
X123204819Y-88504761D02*
X123252438Y-88409523D01*
X123252438Y-88409523D02*
X123300057Y-88361904D01*
X123300057Y-88361904D02*
X123395295Y-88314285D01*
X123395295Y-88314285D02*
X123585771Y-88266666D01*
X123585771Y-88266666D02*
X123823866Y-88266666D01*
X123823866Y-88266666D02*
X124014342Y-88314285D01*
X124014342Y-88314285D02*
X124109580Y-88361904D01*
X124109580Y-88361904D02*
X124157200Y-88409523D01*
X124157200Y-88409523D02*
X124204819Y-88504761D01*
X124204819Y-88504761D02*
X124204819Y-88599999D01*
X124204819Y-88599999D02*
X124157200Y-88695237D01*
X124157200Y-88695237D02*
X124109580Y-88742856D01*
X124109580Y-88742856D02*
X124014342Y-88790475D01*
X124014342Y-88790475D02*
X123823866Y-88838094D01*
X123823866Y-88838094D02*
X123585771Y-88838094D01*
X123585771Y-88838094D02*
X123395295Y-88790475D01*
X123395295Y-88790475D02*
X123300057Y-88742856D01*
X123300057Y-88742856D02*
X123252438Y-88695237D01*
X123252438Y-88695237D02*
X123204819Y-88599999D01*
X123204819Y-87647618D02*
X123204819Y-87552380D01*
X123204819Y-87552380D02*
X123252438Y-87457142D01*
X123252438Y-87457142D02*
X123300057Y-87409523D01*
X123300057Y-87409523D02*
X123395295Y-87361904D01*
X123395295Y-87361904D02*
X123585771Y-87314285D01*
X123585771Y-87314285D02*
X123823866Y-87314285D01*
X123823866Y-87314285D02*
X124014342Y-87361904D01*
X124014342Y-87361904D02*
X124109580Y-87409523D01*
X124109580Y-87409523D02*
X124157200Y-87457142D01*
X124157200Y-87457142D02*
X124204819Y-87552380D01*
X124204819Y-87552380D02*
X124204819Y-87647618D01*
X124204819Y-87647618D02*
X124157200Y-87742856D01*
X124157200Y-87742856D02*
X124109580Y-87790475D01*
X124109580Y-87790475D02*
X124014342Y-87838094D01*
X124014342Y-87838094D02*
X123823866Y-87885713D01*
X123823866Y-87885713D02*
X123585771Y-87885713D01*
X123585771Y-87885713D02*
X123395295Y-87838094D01*
X123395295Y-87838094D02*
X123300057Y-87790475D01*
X123300057Y-87790475D02*
X123252438Y-87742856D01*
X123252438Y-87742856D02*
X123204819Y-87647618D01*
X123204819Y-86695237D02*
X123204819Y-86599999D01*
X123204819Y-86599999D02*
X123252438Y-86504761D01*
X123252438Y-86504761D02*
X123300057Y-86457142D01*
X123300057Y-86457142D02*
X123395295Y-86409523D01*
X123395295Y-86409523D02*
X123585771Y-86361904D01*
X123585771Y-86361904D02*
X123823866Y-86361904D01*
X123823866Y-86361904D02*
X124014342Y-86409523D01*
X124014342Y-86409523D02*
X124109580Y-86457142D01*
X124109580Y-86457142D02*
X124157200Y-86504761D01*
X124157200Y-86504761D02*
X124204819Y-86599999D01*
X124204819Y-86599999D02*
X124204819Y-86695237D01*
X124204819Y-86695237D02*
X124157200Y-86790475D01*
X124157200Y-86790475D02*
X124109580Y-86838094D01*
X124109580Y-86838094D02*
X124014342Y-86885713D01*
X124014342Y-86885713D02*
X123823866Y-86933332D01*
X123823866Y-86933332D02*
X123585771Y-86933332D01*
X123585771Y-86933332D02*
X123395295Y-86885713D01*
X123395295Y-86885713D02*
X123300057Y-86838094D01*
X123300057Y-86838094D02*
X123252438Y-86790475D01*
X123252438Y-86790475D02*
X123204819Y-86695237D01*
X123204819Y-85742856D02*
X123204819Y-85647618D01*
X123204819Y-85647618D02*
X123252438Y-85552380D01*
X123252438Y-85552380D02*
X123300057Y-85504761D01*
X123300057Y-85504761D02*
X123395295Y-85457142D01*
X123395295Y-85457142D02*
X123585771Y-85409523D01*
X123585771Y-85409523D02*
X123823866Y-85409523D01*
X123823866Y-85409523D02*
X124014342Y-85457142D01*
X124014342Y-85457142D02*
X124109580Y-85504761D01*
X124109580Y-85504761D02*
X124157200Y-85552380D01*
X124157200Y-85552380D02*
X124204819Y-85647618D01*
X124204819Y-85647618D02*
X124204819Y-85742856D01*
X124204819Y-85742856D02*
X124157200Y-85838094D01*
X124157200Y-85838094D02*
X124109580Y-85885713D01*
X124109580Y-85885713D02*
X124014342Y-85933332D01*
X124014342Y-85933332D02*
X123823866Y-85980951D01*
X123823866Y-85980951D02*
X123585771Y-85980951D01*
X123585771Y-85980951D02*
X123395295Y-85933332D01*
X123395295Y-85933332D02*
X123300057Y-85885713D01*
X123300057Y-85885713D02*
X123252438Y-85838094D01*
X123252438Y-85838094D02*
X123204819Y-85742856D01*
X124204819Y-84219046D02*
X123538152Y-84219046D01*
X123633390Y-84219046D02*
X123585771Y-84171427D01*
X123585771Y-84171427D02*
X123538152Y-84076189D01*
X123538152Y-84076189D02*
X123538152Y-83933332D01*
X123538152Y-83933332D02*
X123585771Y-83838094D01*
X123585771Y-83838094D02*
X123681009Y-83790475D01*
X123681009Y-83790475D02*
X124204819Y-83790475D01*
X123681009Y-83790475D02*
X123585771Y-83742856D01*
X123585771Y-83742856D02*
X123538152Y-83647618D01*
X123538152Y-83647618D02*
X123538152Y-83504761D01*
X123538152Y-83504761D02*
X123585771Y-83409522D01*
X123585771Y-83409522D02*
X123681009Y-83361903D01*
X123681009Y-83361903D02*
X124204819Y-83361903D01*
X124204819Y-82885713D02*
X123538152Y-82885713D01*
X123633390Y-82885713D02*
X123585771Y-82838094D01*
X123585771Y-82838094D02*
X123538152Y-82742856D01*
X123538152Y-82742856D02*
X123538152Y-82599999D01*
X123538152Y-82599999D02*
X123585771Y-82504761D01*
X123585771Y-82504761D02*
X123681009Y-82457142D01*
X123681009Y-82457142D02*
X124204819Y-82457142D01*
X123681009Y-82457142D02*
X123585771Y-82409523D01*
X123585771Y-82409523D02*
X123538152Y-82314285D01*
X123538152Y-82314285D02*
X123538152Y-82171428D01*
X123538152Y-82171428D02*
X123585771Y-82076189D01*
X123585771Y-82076189D02*
X123681009Y-82028570D01*
X123681009Y-82028570D02*
X124204819Y-82028570D01*
D10*
X128750000Y-70100000D02*
X124313580Y-70100000D01*
X128750000Y-103100000D02*
X124313580Y-103100000D01*
X124900000Y-70100000D02*
X124900000Y-103100000D01*
X124900000Y-70100000D02*
X124900000Y-103100000D01*
X124900000Y-70100000D02*
X125486421Y-71226504D01*
X124900000Y-70100000D02*
X124313579Y-71226504D01*
X124900000Y-103100000D02*
X124313579Y-101973496D01*
X124900000Y-103100000D02*
X125486421Y-101973496D01*
M02*
