%TF.GenerationSoftware,KiCad,Pcbnew,7.0.10-7.0.10~ubuntu22.04.1*%
%TF.CreationDate,2024-04-18T16:44:08+05:30*%
%TF.ProjectId,EspXiao-FC,45737058-6961-46f2-9d46-432e6b696361,rev?*%
%TF.SameCoordinates,Original*%
%TF.FileFunction,Soldermask,Top*%
%TF.FilePolarity,Negative*%
%FSLAX46Y46*%
G04 Gerber Fmt 4.6, Leading zero omitted, Abs format (unit mm)*
G04 Created by KiCad (PCBNEW 7.0.10-7.0.10~ubuntu22.04.1) date 2024-04-18 16:44:08*
%MOMM*%
%LPD*%
G01*
G04 APERTURE LIST*
G04 Aperture macros list*
%AMRoundRect*
0 Rectangle with rounded corners*
0 $1 Rounding radius*
0 $2 $3 $4 $5 $6 $7 $8 $9 X,Y pos of 4 corners*
0 Add a 4 corners polygon primitive as box body*
4,1,4,$2,$3,$4,$5,$6,$7,$8,$9,$2,$3,0*
0 Add four circle primitives for the rounded corners*
1,1,$1+$1,$2,$3*
1,1,$1+$1,$4,$5*
1,1,$1+$1,$6,$7*
1,1,$1+$1,$8,$9*
0 Add four rect primitives between the rounded corners*
20,1,$1+$1,$2,$3,$4,$5,0*
20,1,$1+$1,$4,$5,$6,$7,0*
20,1,$1+$1,$6,$7,$8,$9,0*
20,1,$1+$1,$8,$9,$2,$3,0*%
G04 Aperture macros list end*
%ADD10R,1.700000X1.700000*%
%ADD11O,1.700000X1.700000*%
%ADD12RoundRect,0.102000X0.997500X0.997500X-0.997500X0.997500X-0.997500X-0.997500X0.997500X-0.997500X0*%
%ADD13C,2.199000*%
%ADD14RoundRect,0.102000X-0.997500X0.997500X-0.997500X-0.997500X0.997500X-0.997500X0.997500X0.997500X0*%
%ADD15C,1.524000*%
G04 APERTURE END LIST*
D10*
%TO.C,J3*%
X131750000Y-72610000D03*
D11*
X131750000Y-75150000D03*
%TD*%
D10*
%TO.C,J2*%
X159750000Y-97560000D03*
D11*
X159750000Y-100100000D03*
%TD*%
D12*
%TO.C,Q2*%
X153000000Y-94200000D03*
D13*
X150460000Y-94200000D03*
X147920000Y-94200000D03*
%TD*%
D10*
%TO.C,J6*%
X159700000Y-72610000D03*
D11*
X159700000Y-75150000D03*
%TD*%
D14*
%TO.C,Q3*%
X131450000Y-83200000D03*
D13*
X131450000Y-85740000D03*
X131450000Y-88280000D03*
%TD*%
D10*
%TO.C,J4*%
X131750000Y-97660000D03*
D11*
X131750000Y-100200000D03*
%TD*%
D15*
%TO.C,U1*%
X137484000Y-72969250D03*
X137484000Y-75469250D03*
X137484000Y-78069250D03*
X137484000Y-80569250D03*
X137484000Y-83069250D03*
X137484000Y-85669250D03*
X137484000Y-88169250D03*
X153684000Y-88149250D03*
X153684000Y-85649250D03*
X153684000Y-83049250D03*
X153684000Y-80549250D03*
X153684000Y-78049250D03*
X153684000Y-75449250D03*
X153684000Y-72949250D03*
%TD*%
D14*
%TO.C,Q4*%
X158700000Y-86520000D03*
D13*
X158700000Y-89060000D03*
X158700000Y-91600000D03*
%TD*%
D10*
%TO.C,J5*%
X159700000Y-79125000D03*
D11*
X159700000Y-81665000D03*
%TD*%
D12*
%TO.C,Q1*%
X141652500Y-94230000D03*
D13*
X139112500Y-94230000D03*
X136572500Y-94230000D03*
%TD*%
D10*
%TO.C,J1*%
X137090000Y-100150000D03*
D11*
X139630000Y-100150000D03*
X142170000Y-100150000D03*
X144710000Y-100150000D03*
X147250000Y-100150000D03*
X149790000Y-100150000D03*
X152330000Y-100150000D03*
X154870000Y-100150000D03*
%TD*%
M02*
