%TF.GenerationSoftware,KiCad,Pcbnew,7.0.10-7.0.10~ubuntu22.04.1*%
%TF.CreationDate,2024-04-18T16:44:08+05:30*%
%TF.ProjectId,EspXiao-FC,45737058-6961-46f2-9d46-432e6b696361,rev?*%
%TF.SameCoordinates,Original*%
%TF.FileFunction,Legend,Top*%
%TF.FilePolarity,Positive*%
%FSLAX46Y46*%
G04 Gerber Fmt 4.6, Leading zero omitted, Abs format (unit mm)*
G04 Created by KiCad (PCBNEW 7.0.10-7.0.10~ubuntu22.04.1) date 2024-04-18 16:44:08*
%MOMM*%
%LPD*%
G01*
G04 APERTURE LIST*
%ADD10C,0.150000*%
%ADD11C,0.120000*%
%ADD12C,0.127000*%
%ADD13C,0.200000*%
G04 APERTURE END LIST*
D10*
X134116666Y-74804819D02*
X134116666Y-75519104D01*
X134116666Y-75519104D02*
X134069047Y-75661961D01*
X134069047Y-75661961D02*
X133973809Y-75757200D01*
X133973809Y-75757200D02*
X133830952Y-75804819D01*
X133830952Y-75804819D02*
X133735714Y-75804819D01*
X134497619Y-74804819D02*
X135116666Y-74804819D01*
X135116666Y-74804819D02*
X134783333Y-75185771D01*
X134783333Y-75185771D02*
X134926190Y-75185771D01*
X134926190Y-75185771D02*
X135021428Y-75233390D01*
X135021428Y-75233390D02*
X135069047Y-75281009D01*
X135069047Y-75281009D02*
X135116666Y-75376247D01*
X135116666Y-75376247D02*
X135116666Y-75614342D01*
X135116666Y-75614342D02*
X135069047Y-75709580D01*
X135069047Y-75709580D02*
X135021428Y-75757200D01*
X135021428Y-75757200D02*
X134926190Y-75804819D01*
X134926190Y-75804819D02*
X134640476Y-75804819D01*
X134640476Y-75804819D02*
X134545238Y-75757200D01*
X134545238Y-75757200D02*
X134497619Y-75709580D01*
X159416666Y-94684819D02*
X159416666Y-95399104D01*
X159416666Y-95399104D02*
X159369047Y-95541961D01*
X159369047Y-95541961D02*
X159273809Y-95637200D01*
X159273809Y-95637200D02*
X159130952Y-95684819D01*
X159130952Y-95684819D02*
X159035714Y-95684819D01*
X159845238Y-94780057D02*
X159892857Y-94732438D01*
X159892857Y-94732438D02*
X159988095Y-94684819D01*
X159988095Y-94684819D02*
X160226190Y-94684819D01*
X160226190Y-94684819D02*
X160321428Y-94732438D01*
X160321428Y-94732438D02*
X160369047Y-94780057D01*
X160369047Y-94780057D02*
X160416666Y-94875295D01*
X160416666Y-94875295D02*
X160416666Y-94970533D01*
X160416666Y-94970533D02*
X160369047Y-95113390D01*
X160369047Y-95113390D02*
X159797619Y-95684819D01*
X159797619Y-95684819D02*
X160416666Y-95684819D01*
X152519761Y-99352557D02*
X152424523Y-99304938D01*
X152424523Y-99304938D02*
X152329285Y-99209700D01*
X152329285Y-99209700D02*
X152186428Y-99066842D01*
X152186428Y-99066842D02*
X152091190Y-99019223D01*
X152091190Y-99019223D02*
X151995952Y-99019223D01*
X152043571Y-99257319D02*
X151948333Y-99209700D01*
X151948333Y-99209700D02*
X151853095Y-99114461D01*
X151853095Y-99114461D02*
X151805476Y-98923985D01*
X151805476Y-98923985D02*
X151805476Y-98590652D01*
X151805476Y-98590652D02*
X151853095Y-98400176D01*
X151853095Y-98400176D02*
X151948333Y-98304938D01*
X151948333Y-98304938D02*
X152043571Y-98257319D01*
X152043571Y-98257319D02*
X152234047Y-98257319D01*
X152234047Y-98257319D02*
X152329285Y-98304938D01*
X152329285Y-98304938D02*
X152424523Y-98400176D01*
X152424523Y-98400176D02*
X152472142Y-98590652D01*
X152472142Y-98590652D02*
X152472142Y-98923985D01*
X152472142Y-98923985D02*
X152424523Y-99114461D01*
X152424523Y-99114461D02*
X152329285Y-99209700D01*
X152329285Y-99209700D02*
X152234047Y-99257319D01*
X152234047Y-99257319D02*
X152043571Y-99257319D01*
X152853095Y-98352557D02*
X152900714Y-98304938D01*
X152900714Y-98304938D02*
X152995952Y-98257319D01*
X152995952Y-98257319D02*
X153234047Y-98257319D01*
X153234047Y-98257319D02*
X153329285Y-98304938D01*
X153329285Y-98304938D02*
X153376904Y-98352557D01*
X153376904Y-98352557D02*
X153424523Y-98447795D01*
X153424523Y-98447795D02*
X153424523Y-98543033D01*
X153424523Y-98543033D02*
X153376904Y-98685890D01*
X153376904Y-98685890D02*
X152805476Y-99257319D01*
X152805476Y-99257319D02*
X153424523Y-99257319D01*
X156166666Y-70604819D02*
X156166666Y-71319104D01*
X156166666Y-71319104D02*
X156119047Y-71461961D01*
X156119047Y-71461961D02*
X156023809Y-71557200D01*
X156023809Y-71557200D02*
X155880952Y-71604819D01*
X155880952Y-71604819D02*
X155785714Y-71604819D01*
X157071428Y-70604819D02*
X156880952Y-70604819D01*
X156880952Y-70604819D02*
X156785714Y-70652438D01*
X156785714Y-70652438D02*
X156738095Y-70700057D01*
X156738095Y-70700057D02*
X156642857Y-70842914D01*
X156642857Y-70842914D02*
X156595238Y-71033390D01*
X156595238Y-71033390D02*
X156595238Y-71414342D01*
X156595238Y-71414342D02*
X156642857Y-71509580D01*
X156642857Y-71509580D02*
X156690476Y-71557200D01*
X156690476Y-71557200D02*
X156785714Y-71604819D01*
X156785714Y-71604819D02*
X156976190Y-71604819D01*
X156976190Y-71604819D02*
X157071428Y-71557200D01*
X157071428Y-71557200D02*
X157119047Y-71509580D01*
X157119047Y-71509580D02*
X157166666Y-71414342D01*
X157166666Y-71414342D02*
X157166666Y-71176247D01*
X157166666Y-71176247D02*
X157119047Y-71081009D01*
X157119047Y-71081009D02*
X157071428Y-71033390D01*
X157071428Y-71033390D02*
X156976190Y-70985771D01*
X156976190Y-70985771D02*
X156785714Y-70985771D01*
X156785714Y-70985771D02*
X156690476Y-71033390D01*
X156690476Y-71033390D02*
X156642857Y-71081009D01*
X156642857Y-71081009D02*
X156595238Y-71176247D01*
X136602557Y-83680238D02*
X136554938Y-83775476D01*
X136554938Y-83775476D02*
X136459700Y-83870714D01*
X136459700Y-83870714D02*
X136316842Y-84013571D01*
X136316842Y-84013571D02*
X136269223Y-84108809D01*
X136269223Y-84108809D02*
X136269223Y-84204047D01*
X136507319Y-84156428D02*
X136459700Y-84251666D01*
X136459700Y-84251666D02*
X136364461Y-84346904D01*
X136364461Y-84346904D02*
X136173985Y-84394523D01*
X136173985Y-84394523D02*
X135840652Y-84394523D01*
X135840652Y-84394523D02*
X135650176Y-84346904D01*
X135650176Y-84346904D02*
X135554938Y-84251666D01*
X135554938Y-84251666D02*
X135507319Y-84156428D01*
X135507319Y-84156428D02*
X135507319Y-83965952D01*
X135507319Y-83965952D02*
X135554938Y-83870714D01*
X135554938Y-83870714D02*
X135650176Y-83775476D01*
X135650176Y-83775476D02*
X135840652Y-83727857D01*
X135840652Y-83727857D02*
X136173985Y-83727857D01*
X136173985Y-83727857D02*
X136364461Y-83775476D01*
X136364461Y-83775476D02*
X136459700Y-83870714D01*
X136459700Y-83870714D02*
X136507319Y-83965952D01*
X136507319Y-83965952D02*
X136507319Y-84156428D01*
X135507319Y-83394523D02*
X135507319Y-82775476D01*
X135507319Y-82775476D02*
X135888271Y-83108809D01*
X135888271Y-83108809D02*
X135888271Y-82965952D01*
X135888271Y-82965952D02*
X135935890Y-82870714D01*
X135935890Y-82870714D02*
X135983509Y-82823095D01*
X135983509Y-82823095D02*
X136078747Y-82775476D01*
X136078747Y-82775476D02*
X136316842Y-82775476D01*
X136316842Y-82775476D02*
X136412080Y-82823095D01*
X136412080Y-82823095D02*
X136459700Y-82870714D01*
X136459700Y-82870714D02*
X136507319Y-82965952D01*
X136507319Y-82965952D02*
X136507319Y-83251666D01*
X136507319Y-83251666D02*
X136459700Y-83346904D01*
X136459700Y-83346904D02*
X136412080Y-83394523D01*
X131416666Y-94784819D02*
X131416666Y-95499104D01*
X131416666Y-95499104D02*
X131369047Y-95641961D01*
X131369047Y-95641961D02*
X131273809Y-95737200D01*
X131273809Y-95737200D02*
X131130952Y-95784819D01*
X131130952Y-95784819D02*
X131035714Y-95784819D01*
X132321428Y-95118152D02*
X132321428Y-95784819D01*
X132083333Y-94737200D02*
X131845238Y-95451485D01*
X131845238Y-95451485D02*
X132464285Y-95451485D01*
X145485166Y-68904783D02*
X145485166Y-69471450D01*
X145485166Y-69471450D02*
X145518500Y-69538116D01*
X145518500Y-69538116D02*
X145551833Y-69571450D01*
X145551833Y-69571450D02*
X145618500Y-69604783D01*
X145618500Y-69604783D02*
X145751833Y-69604783D01*
X145751833Y-69604783D02*
X145818500Y-69571450D01*
X145818500Y-69571450D02*
X145851833Y-69538116D01*
X145851833Y-69538116D02*
X145885166Y-69471450D01*
X145885166Y-69471450D02*
X145885166Y-68904783D01*
X146585166Y-69604783D02*
X146185166Y-69604783D01*
X146385166Y-69604783D02*
X146385166Y-68904783D01*
X146385166Y-68904783D02*
X146318499Y-69004783D01*
X146318499Y-69004783D02*
X146251833Y-69071450D01*
X146251833Y-69071450D02*
X146185166Y-69104783D01*
X159224761Y-94690057D02*
X159129523Y-94642438D01*
X159129523Y-94642438D02*
X159034285Y-94547200D01*
X159034285Y-94547200D02*
X158891428Y-94404342D01*
X158891428Y-94404342D02*
X158796190Y-94356723D01*
X158796190Y-94356723D02*
X158700952Y-94356723D01*
X158748571Y-94594819D02*
X158653333Y-94547200D01*
X158653333Y-94547200D02*
X158558095Y-94451961D01*
X158558095Y-94451961D02*
X158510476Y-94261485D01*
X158510476Y-94261485D02*
X158510476Y-93928152D01*
X158510476Y-93928152D02*
X158558095Y-93737676D01*
X158558095Y-93737676D02*
X158653333Y-93642438D01*
X158653333Y-93642438D02*
X158748571Y-93594819D01*
X158748571Y-93594819D02*
X158939047Y-93594819D01*
X158939047Y-93594819D02*
X159034285Y-93642438D01*
X159034285Y-93642438D02*
X159129523Y-93737676D01*
X159129523Y-93737676D02*
X159177142Y-93928152D01*
X159177142Y-93928152D02*
X159177142Y-94261485D01*
X159177142Y-94261485D02*
X159129523Y-94451961D01*
X159129523Y-94451961D02*
X159034285Y-94547200D01*
X159034285Y-94547200D02*
X158939047Y-94594819D01*
X158939047Y-94594819D02*
X158748571Y-94594819D01*
X160034285Y-93928152D02*
X160034285Y-94594819D01*
X159796190Y-93547200D02*
X159558095Y-94261485D01*
X159558095Y-94261485D02*
X160177142Y-94261485D01*
X159366666Y-76249819D02*
X159366666Y-76964104D01*
X159366666Y-76964104D02*
X159319047Y-77106961D01*
X159319047Y-77106961D02*
X159223809Y-77202200D01*
X159223809Y-77202200D02*
X159080952Y-77249819D01*
X159080952Y-77249819D02*
X158985714Y-77249819D01*
X160319047Y-76249819D02*
X159842857Y-76249819D01*
X159842857Y-76249819D02*
X159795238Y-76726009D01*
X159795238Y-76726009D02*
X159842857Y-76678390D01*
X159842857Y-76678390D02*
X159938095Y-76630771D01*
X159938095Y-76630771D02*
X160176190Y-76630771D01*
X160176190Y-76630771D02*
X160271428Y-76678390D01*
X160271428Y-76678390D02*
X160319047Y-76726009D01*
X160319047Y-76726009D02*
X160366666Y-76821247D01*
X160366666Y-76821247D02*
X160366666Y-77059342D01*
X160366666Y-77059342D02*
X160319047Y-77154580D01*
X160319047Y-77154580D02*
X160271428Y-77202200D01*
X160271428Y-77202200D02*
X160176190Y-77249819D01*
X160176190Y-77249819D02*
X159938095Y-77249819D01*
X159938095Y-77249819D02*
X159842857Y-77202200D01*
X159842857Y-77202200D02*
X159795238Y-77154580D01*
X141172261Y-99382557D02*
X141077023Y-99334938D01*
X141077023Y-99334938D02*
X140981785Y-99239700D01*
X140981785Y-99239700D02*
X140838928Y-99096842D01*
X140838928Y-99096842D02*
X140743690Y-99049223D01*
X140743690Y-99049223D02*
X140648452Y-99049223D01*
X140696071Y-99287319D02*
X140600833Y-99239700D01*
X140600833Y-99239700D02*
X140505595Y-99144461D01*
X140505595Y-99144461D02*
X140457976Y-98953985D01*
X140457976Y-98953985D02*
X140457976Y-98620652D01*
X140457976Y-98620652D02*
X140505595Y-98430176D01*
X140505595Y-98430176D02*
X140600833Y-98334938D01*
X140600833Y-98334938D02*
X140696071Y-98287319D01*
X140696071Y-98287319D02*
X140886547Y-98287319D01*
X140886547Y-98287319D02*
X140981785Y-98334938D01*
X140981785Y-98334938D02*
X141077023Y-98430176D01*
X141077023Y-98430176D02*
X141124642Y-98620652D01*
X141124642Y-98620652D02*
X141124642Y-98953985D01*
X141124642Y-98953985D02*
X141077023Y-99144461D01*
X141077023Y-99144461D02*
X140981785Y-99239700D01*
X140981785Y-99239700D02*
X140886547Y-99287319D01*
X140886547Y-99287319D02*
X140696071Y-99287319D01*
X142077023Y-99287319D02*
X141505595Y-99287319D01*
X141791309Y-99287319D02*
X141791309Y-98287319D01*
X141791309Y-98287319D02*
X141696071Y-98430176D01*
X141696071Y-98430176D02*
X141600833Y-98525414D01*
X141600833Y-98525414D02*
X141505595Y-98573033D01*
X134214819Y-100483333D02*
X134929104Y-100483333D01*
X134929104Y-100483333D02*
X135071961Y-100530952D01*
X135071961Y-100530952D02*
X135167200Y-100626190D01*
X135167200Y-100626190D02*
X135214819Y-100769047D01*
X135214819Y-100769047D02*
X135214819Y-100864285D01*
X135214819Y-99483333D02*
X135214819Y-100054761D01*
X135214819Y-99769047D02*
X134214819Y-99769047D01*
X134214819Y-99769047D02*
X134357676Y-99864285D01*
X134357676Y-99864285D02*
X134452914Y-99959523D01*
X134452914Y-99959523D02*
X134500533Y-100054761D01*
D11*
%TO.C,J3*%
X130420000Y-71280000D02*
X131750000Y-71280000D01*
X130420000Y-72610000D02*
X130420000Y-71280000D01*
X130420000Y-73880000D02*
X130420000Y-76480000D01*
X130420000Y-73880000D02*
X133080000Y-73880000D01*
X130420000Y-76480000D02*
X133080000Y-76480000D01*
X133080000Y-73880000D02*
X133080000Y-76480000D01*
%TO.C,J2*%
X158420000Y-96230000D02*
X159750000Y-96230000D01*
X158420000Y-97560000D02*
X158420000Y-96230000D01*
X158420000Y-98830000D02*
X158420000Y-101430000D01*
X158420000Y-98830000D02*
X161080000Y-98830000D01*
X158420000Y-101430000D02*
X161080000Y-101430000D01*
X161080000Y-98830000D02*
X161080000Y-101430000D01*
D12*
%TO.C,Q2*%
X155540000Y-96917500D02*
X145380000Y-96917500D01*
X155540000Y-92722500D02*
X155540000Y-96917500D01*
X145380000Y-96917500D02*
X145380000Y-92722500D01*
X145380000Y-92722500D02*
X155540000Y-92722500D01*
D13*
X156390000Y-94200000D02*
G75*
G03*
X156190000Y-94200000I-100000J0D01*
G01*
X156190000Y-94200000D02*
G75*
G03*
X156390000Y-94200000I100000J0D01*
G01*
D11*
%TO.C,J6*%
X158370000Y-71280000D02*
X159700000Y-71280000D01*
X158370000Y-72610000D02*
X158370000Y-71280000D01*
X158370000Y-73880000D02*
X158370000Y-76480000D01*
X158370000Y-73880000D02*
X161030000Y-73880000D01*
X158370000Y-76480000D02*
X161030000Y-76480000D01*
X161030000Y-73880000D02*
X161030000Y-76480000D01*
D12*
%TO.C,Q3*%
X134167500Y-80660000D02*
X134167500Y-90820000D01*
X129972500Y-80660000D02*
X134167500Y-80660000D01*
X134167500Y-90820000D02*
X129972500Y-90820000D01*
X129972500Y-90820000D02*
X129972500Y-80660000D01*
D13*
X131550000Y-79910000D02*
G75*
G03*
X131350000Y-79910000I-100000J0D01*
G01*
X131350000Y-79910000D02*
G75*
G03*
X131550000Y-79910000I100000J0D01*
G01*
D11*
%TO.C,J4*%
X130420000Y-96330000D02*
X131750000Y-96330000D01*
X130420000Y-97660000D02*
X130420000Y-96330000D01*
X130420000Y-98930000D02*
X130420000Y-101530000D01*
X130420000Y-98930000D02*
X133080000Y-98930000D01*
X130420000Y-101530000D02*
X133080000Y-101530000D01*
X133080000Y-98930000D02*
X133080000Y-101530000D01*
D12*
%TO.C,U1*%
X136684000Y-70740750D02*
X136684000Y-91219250D01*
X136684000Y-91219250D02*
X154484000Y-91219250D01*
X137355541Y-70069250D02*
X136684000Y-70740750D01*
X141080000Y-75997250D02*
X141080000Y-68644250D01*
X141084000Y-68645250D02*
X150079000Y-68645250D01*
X150079000Y-68645250D02*
X150079000Y-75997250D01*
X150079000Y-75997250D02*
X141080000Y-75997250D01*
X154484000Y-70069250D02*
X137355541Y-70069250D01*
X154484000Y-91219250D02*
X154484000Y-70069250D01*
%TO.C,Q4*%
X161417500Y-83980000D02*
X161417500Y-94140000D01*
X157222500Y-83980000D02*
X161417500Y-83980000D01*
X161417500Y-94140000D02*
X157222500Y-94140000D01*
X157222500Y-94140000D02*
X157222500Y-83980000D01*
D13*
X158800000Y-83230000D02*
G75*
G03*
X158600000Y-83230000I-100000J0D01*
G01*
X158600000Y-83230000D02*
G75*
G03*
X158800000Y-83230000I100000J0D01*
G01*
D11*
%TO.C,J5*%
X158370000Y-77795000D02*
X159700000Y-77795000D01*
X158370000Y-79125000D02*
X158370000Y-77795000D01*
X158370000Y-80395000D02*
X158370000Y-82995000D01*
X158370000Y-80395000D02*
X161030000Y-80395000D01*
X158370000Y-82995000D02*
X161030000Y-82995000D01*
X161030000Y-80395000D02*
X161030000Y-82995000D01*
D12*
%TO.C,Q1*%
X144192500Y-96947500D02*
X134032500Y-96947500D01*
X144192500Y-92752500D02*
X144192500Y-96947500D01*
X134032500Y-96947500D02*
X134032500Y-92752500D01*
X134032500Y-92752500D02*
X144192500Y-92752500D01*
D13*
X145042500Y-94230000D02*
G75*
G03*
X144842500Y-94230000I-100000J0D01*
G01*
X144842500Y-94230000D02*
G75*
G03*
X145042500Y-94230000I100000J0D01*
G01*
D11*
%TO.C,J1*%
X135760000Y-101480000D02*
X135760000Y-100150000D01*
X137090000Y-101480000D02*
X135760000Y-101480000D01*
X138360000Y-101480000D02*
X156200000Y-101480000D01*
X138360000Y-101480000D02*
X138360000Y-98820000D01*
X156200000Y-101480000D02*
X156200000Y-98820000D01*
X138360000Y-98820000D02*
X156200000Y-98820000D01*
%TD*%
M02*
